<svg xmlns="http://www.w3.org/2000/svg" xmlns:xlink="http://www.w3.org/1999/xlink" viewBox="0 0 66 45" fill="#fff" fill-rule="evenodd" stroke="#000" stroke-linecap="round" stroke-linejoin="round"><use xlink:href="#A" x=".5" y=".5"/><symbol id="A" overflow="visible"><path d="M39.755 43.554a.983.983 0 0 1-.847-.479L31.453 30.64l-13.943 3.8a.986.986 0 0 1-1.1-.495L.117 3.311a.985.985 0 0 1 .737-1.442L14.687.009a.984.984 0 0 1 .979.468l16.7 27.87 19.406-5.277-6.47-9.14a.983.983 0 0 1 .549-1.53l9.08-2.146a.986.986 0 0 1 .996.341l7.857 9.8a.984.984 0 0 1-.512 1.568l-8.253 2.25 7.224 10.18a.986.986 0 0 1-.479 1.502L40.07 43.483a.994.994 0 0 1-.314.061zm-6.328-13.453 6.757 11.268 19.692-6.894-6.878-9.695zM2.52 3.619l15.247 28.7 12.655-3.433L14.306 2.052zm45.25 10.366 6.052 8.534 7.527-2.047-6.549-8.155z" stroke="none" fill="#ef533f" fill-rule="nonzero"/></symbol></svg>