<svg xmlns="http://www.w3.org/2000/svg" xmlns:xlink="http://www.w3.org/1999/xlink" viewBox="0 0 66 45" fill="#fff" fill-rule="evenodd" stroke="#000" stroke-linecap="round" stroke-linejoin="round"><use xlink:href="#A" x=".5" y=".5"></use><symbol id="A" overflow="visible"><path d="M39.755 43.554c-.347.001-.669-.181-.847-.479L31.453 30.64l-13.943 3.8c-.437.105-.889-.099-1.1-.495L.117 3.311c-.153-.285-.156-.626-.009-.914s.426-.485.746-.528L14.687.009c.391-.054.776.13.979.468l16.7 27.87 19.406-5.277-6.47-9.14c-.191-.264-.239-.604-.129-.91s.364-.538.678-.62l9.08-2.146c.37-.088.758.045.996.341l7.857 9.8c.208.259.272.606.168.923s-.359.559-.68.645l-8.253 2.25 7.224 10.18c.18.253.23.575.136.871s-.322.529-.615.631L40.07 43.483c-.101.037-.207.058-.314.061zm-6.328-13.453l6.757 11.268 19.692-6.894-6.878-9.695zM2.52 3.619l15.247 28.7 12.655-3.433L14.306 2.052zm45.25 10.366l6.052 8.534 7.527-2.047-6.549-8.155z" stroke="none" fill="#ef533f" fill-rule="nonzero"></path></symbol></svg>