<svg width="461.625" height="92.688" viewBox="0 0 461.625 92.688" xmlns="http://www.w3.org/2000/svg"><g id="svgGroup" stroke-linecap="round" fill-rule="evenodd" font-size="9pt" stroke="#000" stroke-width="0.25mm" fill="black" style="stroke:#000;stroke-width:0.25mm;fill:black"><path d="M 67.688 31.25 L 67.813 31.313 A 0.532 0.532 0 0 0 67.621 31.349 A 0.653 0.653 0 0 0 67.563 31.375 L 67.25 31.375 A 2.125 2.125 0 0 1 66.832 31.435 A 2.449 2.449 0 0 1 66.719 31.438 L 66.125 31.438 L 66.375 31.375 A 8.567 8.567 0 0 1 64.857 31.178 A 6.917 6.917 0 0 1 63.781 30.844 A 3.521 3.521 0 0 1 62.453 29.881 A 4.97 4.97 0 0 1 61.875 29.063 A 3.718 3.718 0 0 1 61.805 28.913 Q 61.688 28.649 61.5 28.156 A 33.146 33.146 0 0 1 61.188 27.299 A 39.55 39.55 0 0 1 61 26.75 A 18.532 18.532 0 0 1 60.748 25.936 A 14.598 14.598 0 0 1 60.594 25.344 A 10.148 10.148 0 0 1 60.525 25.037 Q 60.464 24.737 60.445 24.532 A 1.771 1.771 0 0 1 60.438 24.375 A 6.014 6.014 0 0 1 60.474 23.726 A 7.335 7.335 0 0 1 60.531 23.313 A 6.977 6.977 0 0 0 60.612 22.635 A 5.729 5.729 0 0 0 60.625 22.25 Q 60.625 20.313 60.25 18.438 Q 59.875 16.563 59.875 14.625 Q 59.875 13.375 60.188 12.188 Q 60.5 11 61.313 10 L 61 10 A 1.935 1.935 0 0 1 60.484 9.935 A 1.415 1.415 0 0 1 59.813 9.531 A 1.296 1.296 0 0 0 59.322 9.211 Q 59.112 9.13 58.848 9.093 A 3.434 3.434 0 0 0 58.375 9.063 Q 56 9.063 53.75 9.625 A 19.203 19.203 0 0 1 49.698 10.176 A 21.766 21.766 0 0 1 49 10.188 A 64.027 64.027 0 0 1 47 10.156 A 65.703 65.703 0 0 0 45.07 10.125 A 71.894 71.894 0 0 0 44.938 10.125 Q 43 10.125 41.125 10.563 Q 39.25 11 37.5 11 A 0.859 0.859 0 0 1 37.441 10.998 Q 37.353 10.992 37.325 10.966 A 0.038 0.038 0 0 1 37.313 10.938 Q 37.313 10.835 37.606 10.67 A 3.325 3.325 0 0 1 37.75 10.594 Q 38.082 10.428 38.162 10.316 A 0.116 0.116 0 0 0 38.188 10.25 Q 38.188 10.012 37.818 10.001 A 1.231 1.231 0 0 0 37.781 10 L 37.25 10 A 0.917 0.917 0 0 0 36.594 10.275 A 1.465 1.465 0 0 0 36.406 10.5 A 1.632 1.632 0 0 1 35.735 11.057 A 2.252 2.252 0 0 1 35.375 11.188 A 7.503 7.503 0 0 1 33.834 11.426 A 8.697 8.697 0 0 1 33.375 11.438 L 31.313 11.438 A 17.172 17.172 0 0 1 30.965 11.434 Q 30.57 11.426 30.026 11.401 A 72.439 72.439 0 0 1 29.5 11.375 A 18.45 18.45 0 0 1 27.125 11.094 A 9.017 9.017 0 0 1 25.726 10.723 A 7.609 7.609 0 0 1 24.969 10.406 A 2.479 2.479 0 0 1 24.446 10.074 A 1.581 1.581 0 0 1 23.875 9.063 A 2.038 2.038 0 0 0 23.508 9.199 Q 23.304 9.299 23.165 9.439 A 0.983 0.983 0 0 0 22.969 9.719 A 7.765 7.765 0 0 0 22.594 10.688 A 2.885 2.885 0 0 1 22.125 11.594 A 0.914 0.914 0 0 1 21.82 11.841 Q 21.536 11.991 21.078 12.044 A 4.116 4.116 0 0 1 20.875 12.063 A 4.953 4.953 0 0 0 20.078 12.18 Q 19.674 12.276 19.368 12.442 A 1.718 1.718 0 0 0 18.625 13.188 A 4.759 4.759 0 0 0 18.152 14.865 A 5.844 5.844 0 0 0 18.125 15.438 Q 18.125 16.125 18.188 16.813 Q 18.25 17.5 18.25 18.188 A 130.929 130.929 0 0 1 18.156 23.156 A 130.929 130.929 0 0 0 18.063 28.125 A 92.029 92.029 0 0 0 18.064 28.701 Q 18.069 29.342 18.081 30.173 A 294.378 294.378 0 0 0 18.094 30.969 Q 18.125 32.75 18.344 34.469 A 19.535 19.535 0 0 0 18.617 36.094 A 14.375 14.375 0 0 0 19 37.531 A 4.319 4.319 0 0 0 19.234 38.114 Q 19.565 38.782 20.044 38.994 A 1.138 1.138 0 0 0 20.25 39.063 A 5.507 5.507 0 0 0 21.069 39.201 A 6.327 6.327 0 0 0 21.313 39.219 Q 21.875 39.25 22.438 39.25 Q 24.625 39.25 26.719 38.75 Q 28.813 38.25 31 38.25 A 5.481 5.481 0 0 1 32.41 38.428 A 5.071 5.071 0 0 1 32.656 38.5 Q 33.438 38.75 34.25 38.75 Q 35.438 38.75 36.094 37.594 A 7.787 7.787 0 0 0 36.761 36.024 A 9.967 9.967 0 0 0 37.031 34.906 Q 37.313 33.375 37.375 31.813 A 133.176 133.176 0 0 0 37.402 31.082 Q 37.437 30.087 37.438 29.527 A 18.662 18.662 0 0 0 37.438 29.5 A 50.617 50.617 0 0 0 37.344 26.406 A 50.617 50.617 0 0 1 37.25 23.313 L 37.625 23.313 A 8.683 8.683 0 0 1 40.04 23.643 A 8.042 8.042 0 0 1 40.563 23.813 Q 41.938 24.313 43.438 24.313 A 10.292 10.292 0 0 0 43.73 24.309 Q 44.041 24.3 44.25 24.271 A 2.114 2.114 0 0 0 44.375 24.25 A 7.499 7.499 0 0 0 44.782 26.662 A 8.452 8.452 0 0 0 44.813 26.75 Q 45.25 28 45.25 29.313 A 2.246 2.246 0 0 1 45.088 30.192 Q 44.839 30.782 44.208 31.113 A 3.181 3.181 0 0 1 43.5 31.375 A 11.257 11.257 0 0 1 44.167 32.742 A 10.004 10.004 0 0 1 44.313 33.125 Q 44.625 34 44.625 34.938 A 7.166 7.166 0 0 1 44.5 36.281 Q 44.375 36.938 44.375 37.625 A 1.538 1.538 0 0 0 44.426 38.034 A 1.097 1.097 0 0 0 44.781 38.594 A 1.352 1.352 0 0 1 45.01 38.838 A 0.905 0.905 0 0 1 45.188 39.375 A 2.486 2.486 0 0 1 45.117 39.935 Q 44.983 40.512 44.594 41.25 A 5.058 5.058 0 0 0 44.052 42.863 A 4.685 4.685 0 0 0 44 43.563 A 16.806 16.806 0 0 0 44.135 45.649 A 19.604 19.604 0 0 0 44.25 46.438 A 124.01 124.01 0 0 0 44.66 48.758 A 140.635 140.635 0 0 0 44.813 49.563 A 82.863 82.863 0 0 1 45.375 52.844 Q 45.625 54.5 45.625 56.188 A 23.191 23.191 0 0 1 45.553 57.985 A 25.571 25.571 0 0 1 45.531 58.25 Q 45.438 59.313 45.094 60.281 Q 44.75 61.25 44.156 62.063 A 5.036 5.036 0 0 1 42.91 63.256 A 5.904 5.904 0 0 1 42.625 63.438 Q 41.438 63.313 40.625 62.719 A 5.194 5.194 0 0 1 39.281 61.281 A 6.821 6.821 0 0 1 38.533 59.63 A 7.73 7.73 0 0 1 38.469 59.406 A 14.294 14.294 0 0 1 38.063 57.313 A 22.484 22.484 0 0 1 37.867 55.657 A 17.184 17.184 0 0 1 37.813 54.313 A 5.31 5.31 0 0 0 37.701 53.197 A 3.894 3.894 0 0 0 37.219 51.969 A 2.759 2.759 0 0 0 36.537 51.23 Q 36.199 50.97 35.75 50.753 A 6.935 6.935 0 0 0 34.969 50.438 Q 33.603 49.974 30.984 49.892 A 37.784 37.784 0 0 0 29.813 49.875 A 14.388 14.388 0 0 0 29.26 49.887 Q 28.635 49.911 27.787 49.985 A 57.387 57.387 0 0 0 26.969 50.063 A 24.471 24.471 0 0 0 23.313 50.719 A 11.886 11.886 0 0 0 21.519 51.331 A 9.403 9.403 0 0 0 20.156 52.063 A 3.669 3.669 0 0 0 19.462 52.636 A 2.305 2.305 0 0 0 18.813 54.25 A 6.894 6.894 0 0 0 18.969 55.719 A 6.894 6.894 0 0 1 19.125 57.188 Q 19.125 57.813 19.063 58.438 A 12.761 12.761 0 0 0 19.004 59.41 A 14.619 14.619 0 0 0 19 59.75 Q 19 61.438 19.188 63.094 Q 19.375 64.75 19.375 66.438 A 13.71 13.71 0 0 1 18.906 70 A 13.71 13.71 0 0 0 18.438 73.563 Q 18.438 75.111 19.019 76.154 A 3.62 3.62 0 0 0 19.406 76.719 Q 20.375 77.875 21.875 78.469 A 12.056 12.056 0 0 0 24.464 79.163 A 13.925 13.925 0 0 0 25.125 79.25 A 34.016 34.016 0 0 0 27.015 79.402 A 26.745 26.745 0 0 0 28.375 79.438 Q 31.375 79.438 34.375 79.063 Q 37.375 78.688 40.375 78.688 Q 42.25 78.688 44.125 78.875 Q 46 79.063 47.875 79.063 A 51.655 51.655 0 0 0 49.391 79.039 A 69.5 69.5 0 0 0 51.063 78.969 A 13.547 13.547 0 0 0 54.406 78.375 Q 56 77.875 57.156 76.906 A 4.012 4.012 0 0 0 58.306 75.283 A 5.766 5.766 0 0 0 58.625 74.125 A 1.606 1.606 0 0 1 58.683 73.846 Q 58.773 73.558 58.969 73.406 Q 59.25 73.188 59.594 73.031 A 3.672 3.672 0 0 0 59.914 72.867 A 2.76 2.76 0 0 0 60.188 72.688 A 0.578 0.578 0 0 0 60.386 72.408 Q 60.421 72.308 60.432 72.184 A 1.352 1.352 0 0 0 60.438 72.063 A 1.643 1.643 0 0 0 60.38 71.648 Q 60.33 71.456 60.236 71.245 A 3.877 3.877 0 0 0 60.063 70.906 Q 59.735 70.333 59.598 69.831 A 3.116 3.116 0 0 1 59.563 69.688 A 13.312 13.312 0 0 1 59.281 67.281 Q 59.25 66.063 59.25 64.875 A 10.037 10.037 0 0 1 59.372 63.272 A 7.296 7.296 0 0 1 59.844 61.594 A 7.606 7.606 0 0 0 60.409 59.225 A 9.101 9.101 0 0 0 60.438 58.5 Q 60.438 58 60.406 57.563 A 12.256 12.256 0 0 1 60.379 56.991 A 14.903 14.903 0 0 1 60.375 56.625 Q 60.375 56.25 60.938 55.875 A 5.751 5.751 0 0 1 61.63 55.483 A 7.437 7.437 0 0 1 62.25 55.219 A 13.81 13.81 0 0 1 63.75 54.75 A 10.693 10.693 0 0 1 64.102 54.668 Q 64.456 54.592 64.701 54.571 A 2.027 2.027 0 0 1 64.875 54.563 Q 66.438 54.563 67.438 55.656 Q 68.438 56.75 68.969 58.313 A 15.321 15.321 0 0 1 69.688 61.563 A 36.831 36.831 0 0 1 69.802 62.758 Q 69.875 63.695 69.875 64.438 A 28.692 28.692 0 0 1 69.806 66.364 Q 69.738 67.373 69.603 68.491 A 47.968 47.968 0 0 1 69.563 68.813 A 65.195 65.195 0 0 1 68.848 73.174 A 71.68 71.68 0 0 1 68.719 73.813 A 69.267 69.267 0 0 1 67.5 78.781 A 65.838 65.838 0 0 1 66.898 80.773 Q 66.608 81.679 66.318 82.479 A 37.891 37.891 0 0 1 66.125 83 A 10.218 10.218 0 0 1 65.894 83.503 Q 65.643 84.012 65.406 84.313 A 3.723 3.723 0 0 1 64.954 84.797 A 3.127 3.127 0 0 1 64.656 85.031 A 15.334 15.334 0 0 1 64.04 85.436 A 17.829 17.829 0 0 1 63.781 85.594 A 3.117 3.117 0 0 0 63.432 85.84 Q 63.256 85.982 63.069 86.166 A 7.453 7.453 0 0 0 62.75 86.5 Q 62.31 86.995 61.168 87.2 A 7.343 7.343 0 0 1 60.844 87.25 A 21.671 21.671 0 0 1 58.647 87.426 A 25.086 25.086 0 0 1 57.875 87.438 A 40.413 40.413 0 0 1 56.301 87.408 A 34.257 34.257 0 0 1 55.625 87.375 A 57.095 57.095 0 0 0 55.125 87.348 Q 54.422 87.313 54 87.313 A 13.937 13.937 0 0 0 52.674 87.372 Q 51.497 87.484 50.656 87.813 A 7.857 7.857 0 0 1 49.489 88.171 A 5.767 5.767 0 0 1 48.25 88.313 A 2.99 2.99 0 0 1 47.9 88.294 Q 47.532 88.25 47.329 88.106 A 0.603 0.603 0 0 1 47.188 87.969 A 0.81 0.81 0 0 0 46.644 87.641 A 1.242 1.242 0 0 0 46.438 87.625 A 1.029 1.029 0 0 0 45.866 87.802 A 1.51 1.51 0 0 0 45.625 88 A 1.177 1.177 0 0 1 45.156 88.281 Q 44.972 88.343 44.747 88.364 A 2.638 2.638 0 0 1 44.5 88.375 A 38.321 38.321 0 0 1 42.969 88.344 A 39.882 39.882 0 0 0 41.375 88.313 A 153.39 153.39 0 0 0 32.063 88.594 A 273.549 273.549 0 0 1 22.75 89 Q 19.563 89.125 16.438 89.75 Q 13.313 90.375 10.125 90.375 A 13.838 13.838 0 0 1 9.081 90.333 Q 8.549 90.293 7.961 90.213 A 23.768 23.768 0 0 1 7.563 90.156 A 10.757 10.757 0 0 1 4.844 89.375 A 6.408 6.408 0 0 1 3.15 88.303 A 5.922 5.922 0 0 1 2.688 87.844 A 3.368 3.368 0 0 1 1.828 85.811 A 4.436 4.436 0 0 1 1.813 85.438 A 3.873 3.873 0 0 1 2.34 83.505 A 5.249 5.249 0 0 1 2.813 82.813 A 12.926 12.926 0 0 1 4.541 81.043 A 15.073 15.073 0 0 1 5.219 80.5 A 33.886 33.886 0 0 1 8.125 78.531 A 24.481 24.481 0 0 0 9.171 77.865 Q 9.674 77.524 10.092 77.199 A 11.846 11.846 0 0 0 10.563 76.813 A 8.263 8.263 0 0 1 10.51 76.241 A 6.682 6.682 0 0 1 10.5 75.875 L 10.5 75 A 56.277 56.277 0 0 1 10.531 73.125 A 6.601 6.601 0 0 1 10.875 71.25 Q 10.997 70.699 11.509 69.938 A 8.275 8.275 0 0 1 11.531 69.906 Q 12.063 69.125 12.063 68.563 A 2.153 2.153 0 0 0 11.976 67.948 A 1.967 1.967 0 0 0 11.906 67.75 Q 11.75 67.375 11.625 66.938 A 23.826 23.826 0 0 1 11.133 65.628 Q 10.92 65.002 10.775 64.437 A 12.408 12.408 0 0 1 10.656 63.938 Q 10.375 62.625 10.375 60.75 A 70.098 70.098 0 0 1 10.379 59.946 Q 10.387 59.309 10.406 58.781 A 20.089 20.089 0 0 1 10.506 57.377 A 18.079 18.079 0 0 1 10.531 57.156 A 11.823 11.823 0 0 1 10.731 56.001 A 13.802 13.802 0 0 1 10.844 55.531 A 18.942 18.942 0 0 1 11.065 54.751 Q 11.227 54.223 11.438 53.625 A 4.395 4.395 0 0 1 11.284 53.327 Q 11.139 53.021 10.976 52.589 A 17.383 17.383 0 0 1 10.875 52.313 Q 10.604 51.554 10.568 51.078 A 1.856 1.856 0 0 1 10.563 50.938 L 11.438 42.063 A 0.856 0.856 0 0 1 11.409 41.945 Q 11.386 41.819 11.378 41.63 A 4.968 4.968 0 0 1 11.375 41.438 A 3.538 3.538 0 0 1 11.561 40.317 A 3.532 3.532 0 0 1 11.563 40.313 A 3.729 3.729 0 0 0 11.75 39.13 A 4.255 4.255 0 0 0 11.75 39.125 Q 11.75 37.688 11.25 36.281 Q 10.75 34.875 10.75 33.438 A 2.504 2.504 0 0 1 10.788 33.018 Q 10.848 32.669 11 32.25 A 91.138 91.138 0 0 0 11.258 31.531 A 116.09 116.09 0 0 0 11.531 30.75 A 21.085 21.085 0 0 0 11.854 29.73 A 26.439 26.439 0 0 0 12.063 28.969 A 7.91 7.91 0 0 0 12.288 27.563 A 9.5 9.5 0 0 0 12.313 26.875 A 3.151 3.151 0 0 0 12.229 26.133 A 2.425 2.425 0 0 0 11.906 25.375 A 2.526 2.526 0 0 1 11.507 24.144 A 3.113 3.113 0 0 1 11.5 23.938 A 3.192 3.192 0 0 1 11.72 22.789 A 3.92 3.92 0 0 1 11.875 22.438 Q 12.25 21.688 12.25 20.813 A 6.346 6.346 0 0 0 11.781 18.406 A 44.806 44.806 0 0 0 10.937 16.455 A 40.902 40.902 0 0 0 10.813 16.188 A 97.392 97.392 0 0 1 10.459 15.443 Q 10.031 14.532 9.746 13.867 A 27.933 27.933 0 0 1 9.656 13.656 A 6.413 6.413 0 0 0 9.278 12.893 Q 9.008 12.432 8.688 12.094 A 2.923 2.923 0 0 0 7.901 11.512 A 4.104 4.104 0 0 0 7.156 11.219 A 7.38 7.38 0 0 0 6.478 11.06 Q 5.748 10.922 4.72 10.838 A 28.847 28.847 0 0 0 4.375 10.813 Q 3.5 10.75 2.719 10.281 A 5.082 5.082 0 0 1 1.344 9.063 A 7.136 7.136 0 0 1 0.375 7.438 A 4.861 4.861 0 0 1 0.094 6.578 A 3.81 3.81 0 0 1 0 5.75 A 2.253 2.253 0 0 1 0.712 4.096 A 3.277 3.277 0 0 1 1 3.844 A 6.393 6.393 0 0 1 2.121 3.15 Q 2.668 2.882 3.318 2.67 A 11.175 11.175 0 0 1 3.563 2.594 A 21.578 21.578 0 0 1 5.384 2.137 A 28.373 28.373 0 0 1 7.063 1.844 A 64.058 64.058 0 0 1 10.728 1.416 A 58.902 58.902 0 0 1 10.844 1.406 A 89.472 89.472 0 0 1 12.609 1.273 A 67.469 67.469 0 0 1 14.219 1.188 A 42.705 42.705 0 0 0 14.939 1.152 Q 15.716 1.107 16.255 1.042 A 9.806 9.806 0 0 0 16.563 1 A 25.747 25.747 0 0 1 18.702 0.768 A 23.523 23.523 0 0 1 19 0.75 Q 20.188 0.688 21.438 0.688 Q 23.875 0.688 26.344 0.844 Q 28.813 1 31.25 1 Q 33.875 1 36.406 0.5 Q 38.938 0 41.563 0 Q 43.938 0 46.25 0.531 A 20.343 20.343 0 0 0 50.777 1.062 A 19.08 19.08 0 0 0 50.813 1.063 A 17.715 17.715 0 0 0 55.125 0.531 A 17.715 17.715 0 0 1 59.438 0 Q 60.375 0 61.313 0.188 A 40.506 40.506 0 0 0 62.313 1.242 Q 62.869 1.806 63.384 2.278 A 21.821 21.821 0 0 0 63.844 2.688 A 18.024 18.024 0 0 1 65.137 3.918 A 14.667 14.667 0 0 1 65.844 4.719 Q 66.688 5.75 67.219 7.125 A 8.774 8.774 0 0 1 67.556 8.226 Q 67.699 8.818 67.8 9.517 A 20.785 20.785 0 0 1 67.938 10.75 A 18.736 18.736 0 0 1 67.976 11.408 Q 67.991 11.775 67.997 12.196 A 38.454 38.454 0 0 1 68 12.719 A 39.477 39.477 0 0 0 68.062 14.952 A 34.725 34.725 0 0 0 68.063 14.969 A 9.043 9.043 0 0 0 68.18 16.008 A 6.933 6.933 0 0 0 68.406 16.938 Q 68.688 17.813 69.313 18 A 1.26 1.26 0 0 1 69.269 18.346 Q 69.118 18.875 68.438 18.875 A 6.79 6.79 0 0 0 68.696 20.289 A 7.851 7.851 0 0 0 68.813 20.656 L 69.438 22.469 Q 69.75 23.375 70 24.281 A 7.137 7.137 0 0 1 70.202 25.271 A 5.733 5.733 0 0 1 70.25 26 A 0.733 0.733 0 0 1 70.235 26.133 Q 70.182 26.414 69.938 27 A 39.343 39.343 0 0 1 69.602 27.781 A 50.884 50.884 0 0 1 69.219 28.625 A 20.635 20.635 0 0 1 68.645 29.769 A 17.613 17.613 0 0 1 68.375 30.25 Q 67.945 30.988 67.696 31.242 A 1.17 1.17 0 0 1 67.688 31.25 Z M 175.813 87.875 L 175.875 87.875 A 1.437 1.437 0 0 1 175.995 88.014 Q 176.112 88.165 176.239 88.392 A 5.231 5.231 0 0 1 176.281 88.469 A 6.767 6.767 0 0 1 176.536 88.999 A 8.427 8.427 0 0 1 176.688 89.375 Q 176.875 89.875 177.031 90.344 A 20.503 20.503 0 0 1 177.104 90.564 Q 177.172 90.778 177.216 90.933 A 4.743 4.743 0 0 1 177.25 91.063 L 176.125 91 Q 175.25 90.938 174.438 91.125 A 35.595 35.595 0 0 0 172.844 91.531 A 35.596 35.596 0 0 1 171.25 91.938 Q 170.438 92.125 169.625 92.063 A 5.206 5.206 0 0 1 168.806 92.001 A 4.081 4.081 0 0 1 168.156 91.844 A 13.347 13.347 0 0 1 167.154 91.463 A 15.234 15.234 0 0 1 166.813 91.313 Q 165.75 90.813 164.625 90.75 A 16.385 16.385 0 0 1 163.419 90.64 A 12.798 12.798 0 0 1 162.563 90.5 Q 161.625 90.313 161.031 89.625 A 1.941 1.941 0 0 1 160.696 89.042 Q 160.484 88.485 160.446 87.633 A 8.628 8.628 0 0 1 160.438 87.25 A 5.864 5.864 0 0 1 160.627 85.797 A 7.125 7.125 0 0 1 160.813 85.188 A 6.323 6.323 0 0 1 161.875 83.281 Q 162.563 82.438 163.5 81.906 A 3.993 3.993 0 0 1 165.5 81.375 A 3.174 3.174 0 0 1 166.938 81.719 A 3.174 3.174 0 0 0 168.375 82.063 A 1.709 1.709 0 0 0 168.863 81.996 A 1.361 1.361 0 0 0 169.406 81.688 A 5.859 5.859 0 0 0 170.156 80.844 Q 170.5 80.375 170.906 79.969 Q 171.313 79.563 171.938 79.438 A 48.456 48.456 0 0 1 172.5 72.906 Q 173 69.688 173 66.375 Q 173 63.125 172.406 59.969 Q 171.813 56.813 171.813 53.563 A 14.146 14.146 0 0 1 172.344 49.688 A 14.146 14.146 0 0 0 172.875 45.813 A 4.607 4.607 0 0 0 172.406 43.781 Q 171.938 42.813 171.938 41.75 A 2.419 2.419 0 0 1 171.985 41.257 Q 172.081 40.794 172.375 40.5 A 1.976 1.976 0 0 0 172.866 39.669 A 2.543 2.543 0 0 0 172.938 39.375 L 172.75 39.375 A 1.079 1.079 0 0 1 172.419 39.329 Q 172.069 39.216 171.973 38.83 A 1.376 1.376 0 0 1 171.938 38.5 Q 171.938 37.889 172.212 37.705 A 0.505 0.505 0 0 1 172.5 37.625 A 0.518 0.518 0 0 1 172.628 37.643 Q 172.749 37.674 172.907 37.759 A 2.414 2.414 0 0 1 173 37.813 Q 173 37.313 172.719 36.813 A 13.088 13.088 0 0 0 172.115 35.844 A 14.219 14.219 0 0 0 172.094 35.813 A 17.322 17.322 0 0 1 171.438 34.781 A 2.276 2.276 0 0 1 171.179 34.148 A 2.003 2.003 0 0 1 171.125 33.688 Q 171.636 32.712 171.888 31.91 A 6.238 6.238 0 0 0 172.031 31.375 A 9.334 9.334 0 0 0 172.25 29.375 A 17.305 17.305 0 0 0 172.156 27.594 A 15.74 15.74 0 0 1 172.099 26.866 Q 172.063 26.219 172.063 25.438 Q 172.063 24.063 172.625 22.813 Q 173.188 21.563 173.188 20.188 Q 173.188 19.375 172.813 19.063 A 1.333 1.333 0 0 0 172.145 18.77 A 1.798 1.798 0 0 0 171.875 18.75 Q 171.563 18.75 171.063 18.875 Q 171.063 18.141 170.961 16.923 A 52.048 52.048 0 0 0 170.938 16.656 A 14.569 14.569 0 0 0 170.438 13.938 A 7.616 7.616 0 0 0 169.876 12.509 A 6.345 6.345 0 0 0 169.344 11.656 A 2.446 2.446 0 0 0 168.629 10.996 Q 168.108 10.688 167.438 10.688 A 11.346 11.346 0 0 0 165.969 10.781 A 11.346 11.346 0 0 1 164.5 10.875 A 4.513 4.513 0 0 1 162.304 10.298 A 5.332 5.332 0 0 1 162.219 10.25 A 6.764 6.764 0 0 1 160.313 8.625 Q 159.5 7.625 159 6.438 A 6.558 6.558 0 0 1 158.603 5.157 A 5.346 5.346 0 0 1 158.5 4.125 A 3.189 3.189 0 0 1 158.541 3.591 Q 158.589 3.313 158.69 3.104 A 1.066 1.066 0 0 1 159.25 2.563 A 4.038 4.038 0 0 1 160.315 2.287 A 5.095 5.095 0 0 1 160.938 2.25 Q 161.438 2.25 161.875 2.281 Q 162.313 2.313 162.75 2.313 A 6.733 6.733 0 0 0 163.771 2.232 A 7.959 7.959 0 0 0 164.188 2.156 A 2.576 2.576 0 0 0 164.971 1.861 A 2.308 2.308 0 0 0 165.438 1.5 Q 167.375 1.375 169.25 1.188 Q 171.125 1 173.063 1 A 3.837 3.837 0 0 1 174.121 1.141 A 3.258 3.258 0 0 1 174.938 1.5 A 13.229 13.229 0 0 1 176.335 2.495 A 14.695 14.695 0 0 1 176.531 2.656 A 21.547 21.547 0 0 0 178.125 3.875 Q 178.938 4.438 179.938 4.625 A 16.321 16.321 0 0 1 179.719 7.313 A 16.321 16.321 0 0 0 179.5 10 A 5.842 5.842 0 0 0 180.031 12.469 A 5.7 5.7 0 0 1 180.563 14.875 A 0.846 0.846 0 0 1 180.552 15.013 Q 180.54 15.084 180.515 15.137 A 0.246 0.246 0 0 1 180.313 15.281 A 5.32 5.32 0 0 0 179.988 15.333 A 6.502 6.502 0 0 0 179.781 15.375 Q 179.5 15.438 179.281 15.625 Q 179.063 15.813 179.063 16.5 A 2.622 2.622 0 0 0 179.281 17.563 A 13.878 13.878 0 0 0 179.75 18.531 Q 180 19 180.219 19.5 A 2.622 2.622 0 0 1 180.438 20.563 A 5.151 5.151 0 0 1 180.193 22.161 A 4.831 4.831 0 0 1 180.094 22.438 A 5.047 5.047 0 0 0 179.751 24.188 A 5.751 5.751 0 0 0 179.75 24.313 A 10.518 10.518 0 0 0 179.762 24.777 Q 179.797 25.563 179.938 26.875 Q 180.125 28.625 180.563 30.406 Q 181 32.188 181.688 33.531 Q 182.375 34.875 183.375 34.875 Q 184.688 34.875 185.875 34.25 A 13.204 13.204 0 0 0 188.088 32.775 A 14.558 14.558 0 0 0 188.156 32.719 Q 189.25 31.813 190.25 30.781 A 57.913 57.913 0 0 1 191.219 29.805 A 43.907 43.907 0 0 1 192.125 28.938 Q 192.552 28.558 193.591 28.178 A 14.781 14.781 0 0 1 194.313 27.938 A 38.257 38.257 0 0 1 196.454 27.349 A 46.92 46.92 0 0 1 197.844 27.031 A 54.375 54.375 0 0 1 200.859 26.474 A 48.191 48.191 0 0 1 201.531 26.375 Q 203.313 26.125 204.125 26.125 Q 205.712 26.125 206.614 26.273 A 4.645 4.645 0 0 1 207.094 26.375 A 5.277 5.277 0 0 1 207.906 26.669 A 3.971 3.971 0 0 1 208.625 27.094 A 10.946 10.946 0 0 1 209.406 27.741 A 13.183 13.183 0 0 1 209.875 28.188 Q 210.402 28.715 211.552 29.331 A 17.851 17.851 0 0 0 212 29.563 A 4.654 4.654 0 0 0 212.684 29.842 A 3.711 3.711 0 0 0 213.219 29.969 Q 213.813 30.063 214.344 30.156 A 3.454 3.454 0 0 1 215.124 30.395 A 4.122 4.122 0 0 1 215.406 30.531 Q 215.866 30.775 216.303 31.276 A 5.033 5.033 0 0 1 216.438 31.438 A 18.767 18.767 0 0 0 217.226 32.397 Q 217.783 33.033 218.469 33.719 A 29.478 29.478 0 0 1 220.75 36.281 A 19.485 19.485 0 0 1 222.594 39.063 A 6.638 6.638 0 0 1 223.198 40.567 A 5.445 5.445 0 0 1 223.375 41.938 A 5.378 5.378 0 0 1 223.073 43.694 A 6.112 6.112 0 0 1 223.031 43.813 A 5.491 5.491 0 0 0 222.696 45.395 A 5.121 5.121 0 0 0 222.688 45.688 Q 222.688 46.375 223 46.906 Q 223.313 47.438 223.313 48.125 A 21.577 21.577 0 0 1 223.309 48.523 Q 223.297 49.136 223.253 49.946 A 60.585 60.585 0 0 1 223.25 50 A 23.485 23.485 0 0 1 223.086 51.74 A 26.896 26.896 0 0 1 223 52.344 Q 222.813 53.563 222.531 54.656 A 7.347 7.347 0 0 1 222.34 55.288 Q 222.23 55.597 222.103 55.847 A 2.897 2.897 0 0 1 221.813 56.313 Q 222.75 57.875 223.063 59.625 Q 223.375 61.375 223.375 63.125 A 43.009 43.009 0 0 1 223.156 67.469 A 43.009 43.009 0 0 0 222.938 71.813 A 15.883 15.883 0 0 0 223.021 73.498 Q 223.208 75.242 223.813 76.344 A 7.796 7.796 0 0 0 224.722 77.673 A 5.963 5.963 0 0 0 225.969 78.781 A 8.938 8.938 0 0 0 228.781 80 Q 230.313 80.375 231.594 80.906 A 6.013 6.013 0 0 1 233.378 82.031 A 5.682 5.682 0 0 1 233.75 82.406 Q 234.407 83.133 234.571 84.441 A 7.527 7.527 0 0 1 234.625 85.375 A 6.029 6.029 0 0 1 234.281 87.406 A 8.909 8.909 0 0 1 233.375 89.25 A 71.147 71.147 0 0 1 231.272 89.402 A 64.015 64.015 0 0 1 230.594 89.438 Q 229.25 89.5 227.813 89.5 Q 226.438 89.5 225.063 89.469 Q 223.688 89.438 222.313 89.438 A 18.924 18.924 0 0 0 218.531 89.813 Q 216.688 90.188 214.75 90.188 A 3.537 3.537 0 0 1 213.648 90.03 Q 212.142 89.537 212 87.5 A 2.488 2.488 0 0 0 210.438 88.031 Q 209.75 88.563 209.063 89.156 A 13.898 13.898 0 0 1 207.764 90.147 A 15.404 15.404 0 0 1 207.563 90.281 A 3.272 3.272 0 0 1 205.981 90.802 A 4.051 4.051 0 0 1 205.688 90.813 A 3.941 3.941 0 0 1 204.313 90.556 A 5.248 5.248 0 0 1 203.531 90.188 A 2.293 2.293 0 0 1 202.87 89.638 Q 202.492 89.166 202.444 88.505 A 2.698 2.698 0 0 1 202.438 88.313 A 1.585 1.585 0 0 1 202.656 87.5 A 3.321 3.321 0 0 1 203.011 87 A 2.934 2.934 0 0 1 203.156 86.844 A 12.601 12.601 0 0 1 203.43 86.578 A 9.62 9.62 0 0 1 203.688 86.344 Q 203.899 86.159 203.932 85.996 A 0.297 0.297 0 0 0 203.938 85.938 A 0.744 0.744 0 0 0 203.772 85.471 A 1.023 1.023 0 0 0 203.688 85.375 A 4.377 4.377 0 0 0 203.395 85.109 A 5.772 5.772 0 0 0 203.094 84.875 A 3.973 3.973 0 0 1 202.701 84.55 A 3.314 3.314 0 0 1 202.5 84.344 A 0.976 0.976 0 0 1 202.266 83.837 A 1.345 1.345 0 0 1 202.25 83.625 A 2.092 2.092 0 0 1 202.331 83.026 A 1.504 1.504 0 0 1 203 82.156 Q 203.618 81.77 204.534 81.575 A 7.67 7.67 0 0 1 204.938 81.5 A 17.861 17.861 0 0 1 206.495 81.327 A 21.863 21.863 0 0 1 207.5 81.281 A 108.212 108.212 0 0 0 210.188 81.188 Q 211.396 81.13 212.34 80.887 A 7.516 7.516 0 0 0 212.5 80.844 A 2.782 2.782 0 0 0 213.111 80.597 A 1.828 1.828 0 0 0 213.875 79.813 Q 214.48 78.723 214.851 77.222 A 14.803 14.803 0 0 0 214.875 77.125 A 30.826 30.826 0 0 0 215.441 74.085 A 33.668 33.668 0 0 0 215.469 73.875 Q 215.688 72.188 215.781 70.531 Q 215.875 68.875 215.875 67.563 A 67.001 67.001 0 0 0 215.656 62.125 Q 215.438 59.438 214.875 56.75 A 19.084 19.084 0 0 0 214.219 54.313 A 7.48 7.48 0 0 1 213.813 51.875 A 4.513 4.513 0 0 1 213.867 51.154 A 3.376 3.376 0 0 1 214.063 50.438 A 10.523 10.523 0 0 1 214.354 49.774 A 8.273 8.273 0 0 1 214.594 49.313 A 50.75 50.75 0 0 0 214.998 48.58 A 45.186 45.186 0 0 0 215.125 48.344 Q 215.375 47.875 215.375 47.375 A 3.027 3.027 0 0 0 215.177 46.269 A 2.799 2.799 0 0 0 214.75 45.531 Q 214.125 44.75 213.813 43.813 A 7.606 7.606 0 0 1 213.406 42.031 A 6.094 6.094 0 0 0 212.938 40.25 A 4.842 4.842 0 0 0 212.125 39.094 L 211.125 38.031 A 47.426 47.426 0 0 0 210.125 37 Q 209.625 36.5 209.375 35.813 A 50.844 50.844 0 0 0 206.199 35.637 A 44.193 44.193 0 0 0 205.188 35.625 A 38.816 38.816 0 0 0 202.222 35.734 A 31.016 31.016 0 0 0 200.094 35.969 A 18.374 18.374 0 0 0 195.656 37.188 Q 193.563 38.063 191.719 39.5 A 19.459 19.459 0 0 0 189.688 41.34 A 25.59 25.59 0 0 0 188.125 43.125 A 32.235 32.235 0 0 1 187.53 43.817 Q 187.22 44.168 186.866 44.553 A 56.998 56.998 0 0 1 186.625 44.813 Q 185.75 45.75 184.875 46.719 A 22.871 22.871 0 0 0 183.372 48.563 A 21.007 21.007 0 0 0 183.281 48.688 A 6.439 6.439 0 0 0 182.785 49.49 Q 182.486 50.068 182.375 50.625 A 36.525 36.525 0 0 0 181.82 53.281 A 49.23 49.23 0 0 0 181.406 56.25 A 60.489 60.489 0 0 0 181.148 59.25 A 46.148 46.148 0 0 0 181.063 62 A 7.191 7.191 0 0 0 181.281 63.75 Q 181.5 64.625 181.781 65.469 Q 182.063 66.313 182.281 67.156 A 6.971 6.971 0 0 1 182.497 68.704 A 7.888 7.888 0 0 1 182.5 68.938 A 2.635 2.635 0 0 1 182.485 69.192 Q 182.439 69.655 182.25 70.531 A 26.107 26.107 0 0 1 181.625 72.875 Q 181.251 74.06 180.814 74.965 A 9.043 9.043 0 0 1 180.813 74.969 A 3.978 3.978 0 0 1 180.635 75.3 Q 180.286 75.875 179.938 75.875 Q 180.063 76.313 180.813 77.031 A 14.055 14.055 0 0 0 181.835 77.917 A 17.2 17.2 0 0 0 182.531 78.438 A 21.357 21.357 0 0 0 183.689 79.206 A 17.359 17.359 0 0 0 184.406 79.625 A 7.987 7.987 0 0 0 184.818 79.838 Q 185.418 80.125 185.75 80.125 A 6.283 6.283 0 0 0 186.844 80.031 A 6.058 6.058 0 0 1 187.686 79.941 A 5.43 5.43 0 0 1 187.875 79.938 Q 188.938 79.938 190.177 80.463 A 9.141 9.141 0 0 1 190.469 80.594 Q 191.828 81.228 192.779 81.98 A 8.424 8.424 0 0 1 192.844 82.031 Q 193.667 82.695 193.926 83.268 A 1.463 1.463 0 0 1 194 83.469 Q 194.187 84.122 192.888 84.125 A 5.251 5.251 0 0 1 192.875 84.125 A 6.977 6.977 0 0 0 192.399 84.142 A 8.098 8.098 0 0 0 192.219 84.156 A 7.57 7.57 0 0 1 191.741 84.185 A 6.519 6.519 0 0 1 191.563 84.188 A 1.776 1.776 0 0 1 191.249 84.162 Q 190.869 84.094 190.688 83.844 Q 190.438 83.5 190.25 83.094 A 13.544 13.544 0 0 0 190.016 82.61 A 11.077 11.077 0 0 0 189.875 82.344 Q 189.691 82.006 189.206 82 A 1.428 1.428 0 0 0 189.188 82 A 0.386 0.386 0 0 0 188.989 82.05 Q 188.849 82.132 188.788 82.35 A 0.946 0.946 0 0 0 188.781 82.375 A 4.043 4.043 0 0 0 188.728 82.618 Q 188.688 82.836 188.688 83 Q 188.688 83.474 189.043 83.971 A 2.997 2.997 0 0 0 189.188 84.156 A 26.091 26.091 0 0 0 189.919 84.987 A 30.511 30.511 0 0 0 190.281 85.375 A 15.502 15.502 0 0 1 191.375 86.656 A 2.696 2.696 0 0 1 191.699 87.195 A 1.968 1.968 0 0 1 191.875 88 A 0.779 0.779 0 0 1 191.875 88.005 Q 191.874 88.1 191.85 88.178 A 0.421 0.421 0 0 1 191.625 88.438 Q 191.375 88.563 191.125 88.563 A 4.024 4.024 0 0 1 189.906 88.375 Q 189.313 88.188 188.688 88.188 Q 188.125 88.188 187.625 88.656 Q 187.247 89.011 186.691 89.418 A 17.231 17.231 0 0 1 186.313 89.688 A 6.727 6.727 0 0 1 185.57 90.129 Q 184.967 90.44 184.188 90.719 Q 183.269 91.047 181.922 91.145 A 16.973 16.973 0 0 1 180.688 91.188 A 1.972 1.972 0 0 1 180.234 91.139 A 1.104 1.104 0 0 1 179.438 90.5 A 10.765 10.765 0 0 1 179.088 89.629 A 13.542 13.542 0 0 1 178.875 88.969 Q 178.625 88.125 178.313 87.438 A 1.104 1.104 0 0 0 177.516 86.799 A 1.972 1.972 0 0 0 177.063 86.75 A 1.08 1.08 0 0 0 176.638 86.831 A 1.019 1.019 0 0 0 176.25 87.125 A 2.801 2.801 0 0 0 176.002 87.471 A 2.024 2.024 0 0 0 175.813 87.875 Z M 441.938 47.938 L 441.938 46.063 Q 441.938 44.75 441.813 43.375 Q 441.688 42 441.188 40.906 Q 440.688 39.813 439.75 39.125 A 3.192 3.192 0 0 0 438.786 38.655 Q 438.347 38.521 437.817 38.469 A 7.174 7.174 0 0 0 437.125 38.438 A 28.068 28.068 0 0 0 434.375 40.344 A 12.072 12.072 0 0 0 432.063 42.75 A 4.06 4.06 0 0 0 431.811 43.166 Q 431.562 43.634 431.293 44.347 A 19.462 19.462 0 0 0 431.125 44.813 A 27.268 27.268 0 0 0 430.67 46.256 Q 430.451 47.02 430.246 47.878 A 45.281 45.281 0 0 0 430.188 48.125 Q 429.75 50 429.344 52.125 A 153.339 153.339 0 0 0 428.961 54.203 A 132.487 132.487 0 0 0 428.625 56.188 A 91.985 91.985 0 0 0 428.344 58.047 A 70.022 70.022 0 0 0 428.125 59.75 A 47.174 47.174 0 0 0 428.043 60.512 Q 427.964 61.307 427.944 61.848 A 9.241 9.241 0 0 0 427.938 62.188 A 33.771 33.771 0 0 0 428.281 66.969 A 33.771 33.771 0 0 1 428.625 71.75 A 13.011 13.011 0 0 1 428.439 73.975 A 11.981 11.981 0 0 1 428.406 74.156 A 12.846 12.846 0 0 0 428.188 76.407 A 14.188 14.188 0 0 0 428.188 76.563 Q 428.188 77.063 428.25 77.563 A 2.26 2.26 0 0 0 428.433 78.203 A 2.921 2.921 0 0 0 428.625 78.563 Q 429.313 78.938 430.281 79.5 A 12.358 12.358 0 0 1 432.094 80.781 Q 432.938 81.5 433.531 82.313 A 3.267 3.267 0 0 1 433.947 83.062 A 2.585 2.585 0 0 1 434.125 84 A 4.065 4.065 0 0 1 433.874 85.454 A 3.639 3.639 0 0 1 432.813 86.938 Q 431.5 88.063 429.75 88.063 A 5.395 5.395 0 0 1 429.253 88.04 A 4.369 4.369 0 0 1 428.938 88 A 4.573 4.573 0 0 0 428.444 87.946 A 5.652 5.652 0 0 0 428.125 87.938 A 3.499 3.499 0 0 0 426.906 88.156 Q 426.313 88.375 425.688 88.656 Q 425.063 88.938 424.406 89.156 A 4.331 4.331 0 0 1 423.232 89.37 A 4.998 4.998 0 0 1 423 89.375 Q 421.063 89.375 419.25 88.875 Q 417.438 88.375 415.5 88.375 A 1.274 1.274 0 0 1 414.67 88.067 A 1.792 1.792 0 0 1 414.5 87.906 A 3.943 3.943 0 0 1 413.835 86.928 A 4.476 4.476 0 0 1 413.781 86.813 A 5.648 5.648 0 0 1 413.375 85.5 Q 413.251 84.816 413.25 84.38 A 3.18 3.18 0 0 1 413.25 84.375 A 4.326 4.326 0 0 1 413.296 83.726 Q 413.396 83.065 413.719 82.656 Q 414.188 82.063 414.875 81.625 A 26.393 26.393 0 0 1 415.602 81.18 A 34.015 34.015 0 0 1 416.406 80.719 A 5.337 5.337 0 0 0 417.629 79.777 A 6.326 6.326 0 0 0 417.938 79.438 A 5.011 5.011 0 0 0 418.479 78.646 Q 418.71 78.233 418.908 77.731 A 10.106 10.106 0 0 0 419.094 77.219 Q 419.422 76.235 419.52 74.807 A 19.039 19.039 0 0 0 419.563 73.5 Q 419.563 72.563 419.313 71.688 Q 419.063 70.813 418.781 69.938 Q 418.5 69.063 418.281 68.188 Q 418.063 67.313 418.063 66.375 Q 418.063 64.75 418.438 63.125 Q 418.813 61.5 418.813 59.875 Q 418.813 58.688 418.375 57.625 Q 417.938 56.563 417.938 55.438 A 2.332 2.332 0 0 1 418.406 54 A 2.332 2.332 0 0 0 418.875 52.563 Q 418.875 52.357 418.791 51.858 A 18.226 18.226 0 0 0 418.75 51.625 A 142.19 142.19 0 0 1 418.635 50.982 Q 418.557 50.541 418.469 50.031 A 40.206 40.206 0 0 1 418.252 48.619 A 46.077 46.077 0 0 1 418.188 48.125 A 16.527 16.527 0 0 1 418.083 46.982 A 13.363 13.363 0 0 1 418.063 46.25 A 9.246 9.246 0 0 1 418.344 44 A 9.246 9.246 0 0 0 418.625 41.75 A 2.514 2.514 0 0 0 418.281 40.469 A 3.935 3.935 0 0 0 417.462 39.48 A 4.48 4.48 0 0 0 417.375 39.406 Q 416.813 38.938 416.125 38.688 A 4.313 4.313 0 0 0 415.412 38.492 A 3.398 3.398 0 0 0 414.813 38.438 A 5.431 5.431 0 0 0 412.75 38.844 A 9.12 9.12 0 0 0 410.875 39.875 Q 410 40.5 409.188 41.25 Q 408.375 42 407.625 42.688 A 15.628 15.628 0 0 0 407.361 43.566 A 17.697 17.697 0 0 0 407.281 43.875 Q 407.125 44.5 406.813 45 A 1.525 1.525 0 0 1 406.492 45.344 Q 406.297 45.5 406.031 45.625 L 404.969 46.125 A 7.38 7.38 0 0 0 404.44 46.399 A 5.693 5.693 0 0 0 404.031 46.656 A 0.915 0.915 0 0 0 403.636 47.323 A 1.383 1.383 0 0 0 403.625 47.5 Q 403.625 48 403.969 48.313 A 2.309 2.309 0 0 0 404.32 48.578 A 1.801 1.801 0 0 0 404.688 48.75 Q 405.262 50.013 405.308 51.118 A 4.604 4.604 0 0 1 405.313 51.313 A 9.624 9.624 0 0 1 405.094 53.375 A 30.227 30.227 0 0 1 404.594 55.344 Q 404.313 56.313 404.094 57.344 A 9.77 9.77 0 0 0 403.875 59.375 L 403.938 65.625 A 5.554 5.554 0 0 0 403.948 65.979 Q 403.983 66.529 404.138 66.756 A 0.503 0.503 0 0 0 404.156 66.781 A 1.752 1.752 0 0 0 404.454 67.084 A 1.516 1.516 0 0 0 404.656 67.219 A 1.807 1.807 0 0 1 404.92 67.4 Q 405.069 67.521 405.219 67.688 A 1.024 1.024 0 0 1 405.362 67.902 Q 405.55 68.266 405.688 69 A 92.769 92.769 0 0 1 406.031 71.531 A 20.896 20.896 0 0 1 406.188 74.063 Q 406.188 75.375 405.938 76.656 Q 405.688 77.938 405.688 79.25 Q 405.688 80.625 406.094 81.281 A 2.611 2.611 0 0 0 406.554 81.843 A 2.163 2.163 0 0 0 407.125 82.219 Q 407.75 82.5 408.438 82.594 A 5.532 5.532 0 0 1 409.75 82.938 A 2.124 2.124 0 0 1 410.635 83.609 A 2.686 2.686 0 0 1 410.781 83.813 Q 411.188 84.438 411.188 85.813 A 3.705 3.705 0 0 1 411.084 86.713 A 2.66 2.66 0 0 1 410.5 87.844 A 3.366 3.366 0 0 1 409.35 88.682 A 4.523 4.523 0 0 1 408.625 88.938 Q 404.688 90 400.438 90.625 A 57.245 57.245 0 0 1 392.379 91.249 A 52.923 52.923 0 0 1 392.125 91.25 A 28.005 28.005 0 0 1 391.24 91.237 Q 390.807 91.223 390.431 91.195 A 13.399 13.399 0 0 1 390 91.156 Q 389.125 91.063 388.594 90.656 Q 388.138 90.308 387.889 89.614 A 3.803 3.803 0 0 1 387.813 89.375 A 5.129 5.129 0 0 1 387.681 88.755 Q 387.579 88.099 387.565 87.182 A 19.741 19.741 0 0 1 387.563 86.875 A 3.423 3.423 0 0 1 388.311 84.744 A 4.731 4.731 0 0 1 388.719 84.281 A 28.731 28.731 0 0 1 391.219 82.063 A 37.949 37.949 0 0 0 393.353 80.247 A 34 34 0 0 0 393.719 79.906 A 4.273 4.273 0 0 0 394.395 79.101 A 2.934 2.934 0 0 0 394.875 77.5 A 17.821 17.821 0 0 0 394.867 76.961 A 13.606 13.606 0 0 0 394.844 76.469 Q 394.814 76.015 394.813 75.649 A 9.125 9.125 0 0 1 394.813 75.625 A 4.187 4.187 0 0 1 394.969 74.5 Q 395.125 73.938 395.625 73.25 Q 395.625 71.875 395.344 70.5 A 104.096 104.096 0 0 0 394.75 67.781 A 124.129 124.129 0 0 1 394.156 65.094 A 13.542 13.542 0 0 1 393.875 62.313 Q 393.875 59.375 394.406 56.563 A 30.913 30.913 0 0 0 394.938 50.813 A 53.222 53.222 0 0 0 394.844 47.625 A 189.743 189.743 0 0 0 394.625 44.438 Q 394.44 42.583 394.193 41.432 A 13.43 13.43 0 0 0 394.188 41.406 A 6.86 6.86 0 0 0 393.891 40.398 A 5.062 5.062 0 0 0 393.406 39.438 A 4.275 4.275 0 0 0 392.546 38.486 A 5.531 5.531 0 0 0 391.906 38.031 Q 390.938 37.438 389.188 36.625 A 6.466 6.466 0 0 1 387.406 35.313 A 2.768 2.768 0 0 1 386.625 33.35 A 3.582 3.582 0 0 1 386.625 33.313 Q 386.625 32 387.219 31.469 Q 387.813 30.938 388.594 30.656 A 68.117 68.117 0 0 1 390.125 30.125 A 1.672 1.672 0 0 0 391.141 29.228 A 2.134 2.134 0 0 0 391.188 29.125 Q 391.419 28.604 391.624 28.485 A 0.301 0.301 0 0 1 391.656 28.469 Q 391.859 28.382 392.412 28.376 A 7.759 7.759 0 0 1 392.5 28.375 A 10.027 10.027 0 0 1 395.75 28.906 Q 397.313 29.438 398.75 30.031 A 202.985 202.985 0 0 0 400.854 30.887 A 181.599 181.599 0 0 0 401.531 31.156 A 7.848 7.848 0 0 0 402.933 31.571 A 6.3 6.3 0 0 0 404.125 31.688 A 4.669 4.669 0 0 0 405.52 31.463 Q 406.195 31.252 406.906 30.844 A 1429.129 1429.129 0 0 1 408.445 29.961 A 1854.25 1854.25 0 0 1 410.125 29 Q 411.875 28 414.031 27.156 A 12.053 12.053 0 0 1 416.801 26.452 A 15.781 15.781 0 0 1 418.938 26.313 A 4.972 4.972 0 0 1 420.359 26.528 A 6.328 6.328 0 0 1 421.125 26.813 A 12.805 12.805 0 0 1 423.279 28.039 A 14.109 14.109 0 0 1 423.313 28.063 Q 424.375 28.813 425.281 29.688 A 18.185 18.185 0 0 1 426.117 30.547 A 13.343 13.343 0 0 1 426.813 31.375 A 15.207 15.207 0 0 1 429.58 29.287 A 17.557 17.557 0 0 1 430.313 28.875 Q 432.313 27.813 434.5 27.125 Q 436.688 26.438 438.938 26.125 A 32.681 32.681 0 0 1 442.075 25.837 A 28.303 28.303 0 0 1 443.25 25.813 Q 444.813 25.813 446.063 26.656 A 7.99 7.99 0 0 1 447.681 28.121 A 9.813 9.813 0 0 1 448.281 28.906 A 16.102 16.102 0 0 1 449.569 31.157 A 18.889 18.889 0 0 1 449.969 32.063 Q 450.688 33.813 451.281 35.563 A 52.861 52.861 0 0 1 452.143 38.344 A 47.168 47.168 0 0 1 452.313 38.969 A 65.149 65.149 0 0 0 452.632 40.136 Q 452.761 40.592 452.885 40.995 A 31.585 31.585 0 0 0 453.125 41.75 A 3.572 3.572 0 0 1 453.309 42.355 A 3.311 3.311 0 0 1 453.313 42.375 A 3.156 3.156 0 0 1 453.363 42.746 A 4.034 4.034 0 0 1 453.375 43.063 Q 453.375 43.938 453.125 44.75 A 35.703 35.703 0 0 1 452.594 46.344 A 35.703 35.703 0 0 0 452.063 47.938 Q 451.813 48.75 451.813 49.625 A 4.289 4.289 0 0 0 452.156 51.313 A 4.289 4.289 0 0 1 452.5 53 A 4.337 4.337 0 0 1 452.125 54.781 Q 451.75 55.625 451.75 56.563 A 6.113 6.113 0 0 0 452.219 58.938 A 6.113 6.113 0 0 1 452.688 61.313 Q 452.688 62.25 452.406 63.094 A 34.708 34.708 0 0 1 451.803 64.758 A 37.674 37.674 0 0 1 451.781 64.813 A 34.889 34.889 0 0 0 451.174 66.479 A 32.226 32.226 0 0 0 451.156 66.531 A 5.594 5.594 0 0 0 450.875 68.305 A 6.092 6.092 0 0 0 450.875 68.313 A 2.805 2.805 0 0 0 450.913 68.782 A 2.499 2.499 0 0 0 450.938 68.906 A 3.513 3.513 0 0 0 451.034 69.251 A 4.439 4.439 0 0 0 451.125 69.5 L 453.563 75.625 A 6.309 6.309 0 0 0 454.402 77.023 Q 454.843 77.587 455.438 78.125 Q 456.75 79.313 458.125 80.438 Q 459.5 81.563 460.563 82.781 A 4.568 4.568 0 0 1 461.289 83.89 A 3.698 3.698 0 0 1 461.625 85.438 A 3.569 3.569 0 0 1 461.615 85.686 Q 461.595 85.968 461.535 86.373 A 18.653 18.653 0 0 1 461.469 86.781 Q 461.313 87.688 460.969 88.594 A 9.878 9.878 0 0 1 460.577 89.495 A 7.607 7.607 0 0 1 460.188 90.188 Q 459.933 90.587 459.637 90.754 A 0.901 0.901 0 0 1 459.188 90.875 A 3.548 3.548 0 0 1 457.99 90.662 A 4.126 4.126 0 0 1 457.813 90.594 A 3.73 3.73 0 0 0 456.824 90.335 A 3.381 3.381 0 0 0 456.438 90.313 A 22.915 22.915 0 0 0 452.125 90.719 A 22.915 22.915 0 0 1 447.813 91.125 A 7.144 7.144 0 0 1 446.289 90.967 A 6.386 6.386 0 0 1 445.813 90.844 A 47.708 47.708 0 0 1 443.969 90.25 Q 443.063 89.938 442.125 89.625 Q 441.188 89.313 440.188 89.188 A 3.667 3.667 0 0 1 439.164 88.962 A 2.773 2.773 0 0 1 437.906 88 A 4.021 4.021 0 0 1 437.137 85.854 A 5.046 5.046 0 0 1 437.125 85.5 A 5.214 5.214 0 0 1 437.298 84.125 A 4.104 4.104 0 0 1 438.031 82.656 A 51.037 51.037 0 0 1 438.992 81.469 A 63.806 63.806 0 0 1 440.063 80.219 A 12.917 12.917 0 0 0 441.259 78.609 A 16.797 16.797 0 0 0 442.094 77.125 A 7.43 7.43 0 0 0 442.646 75.59 Q 442.844 74.793 442.931 73.845 A 17.439 17.439 0 0 0 443 72.25 A 138.479 138.479 0 0 0 442.469 60.094 A 138.479 138.479 0 0 1 441.938 47.938 Z M 106 47.313 L 106 49.063 A 2.913 2.913 0 0 1 105.787 49.283 Q 105.477 49.57 105.219 49.594 Q 104.988 49.615 104.813 49.65 A 2.031 2.031 0 0 0 104.656 49.688 A 0.438 0.438 0 0 0 104.391 49.9 A 0.667 0.667 0 0 0 104.344 50 A 0.853 0.853 0 0 0 104.307 50.142 Q 104.264 50.381 104.253 50.864 A 15.162 15.162 0 0 0 104.25 51.188 A 2.616 2.616 0 0 1 104.102 52.074 A 2.433 2.433 0 0 1 103.938 52.438 A 31.423 31.423 0 0 1 103.281 53.563 A 20.75 20.75 0 0 0 102.625 54.719 Q 102.313 55.313 102.313 56.063 A 8.399 8.399 0 0 0 102.656 58.469 A 8.399 8.399 0 0 1 103 60.875 A 4.398 4.398 0 0 1 102.96 61.483 Q 102.9 61.912 102.75 62.25 Q 102.5 62.813 102.156 63.281 Q 101.813 63.75 101.563 64.188 Q 101.316 64.619 101.313 65.233 A 3.101 3.101 0 0 0 101.313 65.25 A 3.861 3.861 0 0 0 101.447 66.283 A 3.392 3.392 0 0 0 101.656 66.844 A 93.261 93.261 0 0 0 102.375 68.313 Q 102.75 69.063 103.094 69.875 A 4.415 4.415 0 0 1 103.436 71.508 A 5.051 5.051 0 0 1 103.438 71.625 A 9.642 9.642 0 0 1 103.195 73.747 A 10.584 10.584 0 0 1 103.188 73.781 A 9.926 9.926 0 0 0 102.938 76 A 6.831 6.831 0 0 0 102.977 76.762 Q 103.018 77.125 103.101 77.427 A 2.662 2.662 0 0 0 103.344 78.031 A 3.011 3.011 0 0 0 103.91 78.76 A 2.665 2.665 0 0 0 104.406 79.125 A 4.793 4.793 0 0 0 105.262 79.504 A 6.219 6.219 0 0 0 105.938 79.688 A 12.007 12.007 0 0 1 107.38 80.095 A 13.581 13.581 0 0 1 107.719 80.219 Q 108.625 80.563 109.563 81.156 Q 110.409 81.693 111.154 82.713 A 9.054 9.054 0 0 1 111.313 82.938 L 111.688 82.875 Q 112.717 82.875 113.219 83.697 A 2.155 2.155 0 0 1 113.25 83.75 A 3.758 3.758 0 0 1 113.691 84.925 A 3.447 3.447 0 0 1 113.75 85.563 Q 113.75 86.438 113.375 87.094 Q 113.073 87.623 113.014 88.417 A 5.388 5.388 0 0 0 113 88.813 Q 113 89.563 111.375 90.063 A 19.994 19.994 0 0 1 109.641 90.508 A 27.103 27.103 0 0 1 107.688 90.844 A 47.734 47.734 0 0 1 104.682 91.16 A 41.904 41.904 0 0 1 103.719 91.219 A 188.376 188.376 0 0 1 102.946 91.255 Q 101.974 91.299 101.459 91.309 A 13.877 13.877 0 0 1 101.188 91.313 A 51.8 51.8 0 0 1 100.764 91.311 Q 100.055 91.305 98.906 91.281 A 101.956 101.956 0 0 1 97.308 91.235 Q 96.437 91.204 95.469 91.156 A 93.052 93.052 0 0 1 92.522 90.963 A 105.095 105.095 0 0 1 91.5 90.875 A 41.257 41.257 0 0 1 89.279 90.615 A 32.95 32.95 0 0 1 87.688 90.344 A 18.755 18.755 0 0 1 86.353 90.034 Q 85.699 89.854 85.141 89.641 A 9.943 9.943 0 0 1 84.719 89.469 Q 83.548 88.958 83.214 88.246 A 1.451 1.451 0 0 1 83.188 88.188 A 25.029 25.029 0 0 1 82.875 87.398 A 32.069 32.069 0 0 1 82.563 86.531 Q 82.25 85.625 82.25 84.75 A 3.213 3.213 0 0 1 82.472 83.55 A 3.044 3.044 0 0 1 82.719 83.063 Q 83.188 82.313 83.875 81.688 Q 84.813 80.813 85.938 80.656 Q 87.063 80.5 88.156 80.469 Q 89.25 80.438 90.281 80.281 A 3.071 3.071 0 0 0 91.945 79.459 A 3.858 3.858 0 0 0 92.094 79.313 A 3.687 3.687 0 0 0 92.615 78.607 Q 93.037 77.883 93.334 76.785 A 11.995 11.995 0 0 0 93.344 76.75 A 10.913 10.913 0 0 0 93.591 75.516 Q 93.813 74.004 93.813 71.813 Q 93.813 71 93.688 70.156 Q 93.563 69.313 93.375 68.531 Q 93.2 67.802 93.079 67.209 A 27.199 27.199 0 0 1 93.063 67.125 A 10.83 10.83 0 0 1 93.008 66.832 Q 92.938 66.422 92.938 66.188 A 1.497 1.497 0 0 1 92.991 65.803 Q 93.035 65.637 93.116 65.459 A 2.726 2.726 0 0 1 93.156 65.375 A 12.825 12.825 0 0 1 93.487 64.759 A 15.141 15.141 0 0 1 93.656 64.469 A 6.517 6.517 0 0 0 94.041 63.717 A 7.586 7.586 0 0 0 94.156 63.438 A 3.217 3.217 0 0 0 94.354 62.605 A 3.981 3.981 0 0 0 94.375 62.188 A 5.431 5.431 0 0 0 93.969 60.125 A 5.431 5.431 0 0 1 93.563 58.063 Q 93.563 57.188 93.875 56.375 Q 94.188 55.563 94.188 54.688 A 2.502 2.502 0 0 0 93.838 53.419 A 2.974 2.974 0 0 0 93.813 53.375 Q 93.438 52.75 93.438 52 A 4.111 4.111 0 0 1 93.584 50.929 A 4.878 4.878 0 0 1 93.688 50.594 Q 93.938 49.875 93.938 49.125 Q 93.938 47.5 93.563 45.781 A 139.185 139.185 0 0 1 92.954 42.845 A 126.842 126.842 0 0 1 92.875 42.438 A 7.624 7.624 0 0 0 92.549 41.245 Q 92.154 40.175 91.469 39.531 A 7.067 7.067 0 0 0 89.125 38.063 Q 87.813 37.563 86.375 37.25 Q 84.938 36.938 83.75 36.281 A 5.418 5.418 0 0 1 81.881 34.556 A 6.388 6.388 0 0 1 81.781 34.406 A 4.134 4.134 0 0 1 81.321 33.381 Q 81 32.334 81 30.813 A 4.365 4.365 0 0 1 81.109 29.805 A 2.838 2.838 0 0 1 81.969 28.313 A 5.788 5.788 0 0 1 83.811 27.2 A 6.937 6.937 0 0 1 84.313 27.031 A 11.82 11.82 0 0 1 86.933 26.577 A 13.254 13.254 0 0 1 87.219 26.563 A 87.735 87.735 0 0 1 88.31 26.524 Q 88.741 26.512 89.132 26.506 A 47.72 47.72 0 0 1 89.875 26.5 A 12.513 12.513 0 0 1 93.469 27.031 A 16.516 16.516 0 0 0 97.063 27.688 Q 97.875 27.75 98.625 28.219 Q 99.375 28.688 100 29.344 A 5.396 5.396 0 0 1 101 30.813 A 4.959 4.959 0 0 1 101.363 31.904 A 4.354 4.354 0 0 1 101.438 32.438 A 1.906 1.906 0 0 0 101.452 32.654 Q 101.498 33.047 101.688 33.781 A 26.125 26.125 0 0 0 102.26 35.688 A 28.523 28.523 0 0 0 102.281 35.75 Q 102.625 36.75 103.031 37.531 Q 103.322 38.091 103.63 38.25 A 0.53 0.53 0 0 0 103.875 38.313 A 1.916 1.916 0 0 0 104.22 37.943 A 1.614 1.614 0 0 0 104.406 37.594 A 19.006 19.006 0 0 0 104.621 37.008 A 16.43 16.43 0 0 0 104.688 36.813 Q 104.746 36.464 105.424 35.9 A 7.301 7.301 0 0 1 105.531 35.813 Q 106.313 35.188 107.281 34.5 A 175.382 175.382 0 0 1 108.699 33.504 A 156.381 156.381 0 0 1 109.156 33.188 A 20.609 20.609 0 0 0 109.576 32.891 Q 110.156 32.469 110.438 32.188 A 4.219 4.219 0 0 0 110.862 31.6 A 3.605 3.605 0 0 0 111.031 31.281 A 18.243 18.243 0 0 1 111.305 30.72 A 15.357 15.357 0 0 1 111.469 30.406 A 2.013 2.013 0 0 1 111.81 29.94 A 1.808 1.808 0 0 1 112.031 29.75 A 1.059 1.059 0 0 1 112.316 29.608 Q 112.589 29.515 112.994 29.502 A 4.181 4.181 0 0 1 113.125 29.5 L 113.438 29.5 Q 114.109 29.5 114.721 28.934 A 3.094 3.094 0 0 0 114.75 28.906 Q 115.18 28.498 115.787 28.016 A 26.849 26.849 0 0 1 116.375 27.563 A 7.638 7.638 0 0 1 117.291 26.979 Q 118.035 26.571 119 26.219 A 8.329 8.329 0 0 1 120.305 25.869 Q 120.988 25.739 121.794 25.679 A 20.274 20.274 0 0 1 123.313 25.625 Q 125.625 25.625 127.938 25.719 Q 130.25 25.813 132.344 26.375 Q 134.438 26.938 136.281 28.125 Q 138.125 29.313 139.5 31.438 A 44.486 44.486 0 0 0 140.008 32.227 Q 140.734 33.328 141.25 33.938 Q 141.938 34.75 142.375 35.5 A 4.326 4.326 0 0 1 142.76 36.385 Q 142.896 36.814 142.969 37.313 Q 143.099 38.196 143.121 39.814 A 50.78 50.78 0 0 1 143.125 40.5 Q 143.125 41.375 143.438 42.125 A 19.538 19.538 0 0 0 144.007 43.364 A 22.048 22.048 0 0 0 144.156 43.656 A 13.221 13.221 0 0 1 144.87 45.299 A 14.441 14.441 0 0 1 144.875 45.313 A 5.229 5.229 0 0 1 145.128 46.376 A 7.022 7.022 0 0 1 145.188 47.313 Q 145.188 49.5 144.938 51.656 Q 144.688 53.813 144.688 56 A 8.254 8.254 0 0 1 144.094 59.063 A 8.254 8.254 0 0 0 143.5 62.125 Q 143.5 62.875 143.875 63.563 A 3.083 3.083 0 0 1 144.231 64.745 A 3.814 3.814 0 0 1 144.25 65.125 A 9.642 9.642 0 0 1 144.008 67.247 A 10.584 10.584 0 0 1 144 67.281 A 9.678 9.678 0 0 0 143.75 69.371 A 9.034 9.034 0 0 0 143.75 69.438 Q 143.75 70.438 144.219 71.188 A 3.105 3.105 0 0 1 144.687 72.813 A 3.713 3.713 0 0 1 144.688 72.875 A 1.868 1.868 0 0 1 144.658 73.217 Q 144.621 73.413 144.54 73.57 A 1.043 1.043 0 0 1 144.469 73.688 A 6.326 6.326 0 0 1 144.108 74.154 A 7.328 7.328 0 0 1 143.969 74.313 A 4.966 4.966 0 0 0 143.469 74.969 A 1.359 1.359 0 0 0 143.286 75.432 A 1.906 1.906 0 0 0 143.25 75.813 A 4.075 4.075 0 0 0 143.472 77.116 A 5.151 5.151 0 0 0 143.719 77.719 A 6.771 6.771 0 0 0 144.938 79.469 Q 145.688 80.25 146.625 80.719 A 4.515 4.515 0 0 0 147.68 81.098 A 3.829 3.829 0 0 0 148.5 81.188 A 3.228 3.228 0 0 0 149.203 81.114 A 2.463 2.463 0 0 0 149.906 80.844 A 2.514 2.514 0 0 1 151.188 80.5 A 2.078 2.078 0 0 1 152.435 80.921 A 2.928 2.928 0 0 1 152.781 81.219 A 6.85 6.85 0 0 1 153.736 82.426 A 8.159 8.159 0 0 1 154.031 82.938 Q 154.563 83.938 154.844 85 Q 155.122 86.051 155.125 86.735 A 3.403 3.403 0 0 1 155.125 86.75 A 2.87 2.87 0 0 1 155.058 87.386 A 2.012 2.012 0 0 1 154.688 88.188 A 2.997 2.997 0 0 1 153.594 89.063 A 4.502 4.502 0 0 1 152.397 89.434 A 5.186 5.186 0 0 1 152.156 89.469 A 13.348 13.348 0 0 1 151.222 89.549 A 10.895 10.895 0 0 1 150.688 89.563 Q 149.75 89.563 148.813 89.438 L 146.938 89.188 A 33.701 33.701 0 0 1 145.934 89.52 Q 145.043 89.801 143.969 90.094 Q 142.431 90.513 141.169 90.557 A 8.394 8.394 0 0 1 140.875 90.563 Q 140.5 90.563 140.156 90.438 Q 139.813 90.313 139.5 90.313 A 5.982 5.982 0 0 0 137.787 90.57 A 7.049 7.049 0 0 0 137.344 90.719 A 6.466 6.466 0 0 1 135.888 91.081 A 5.677 5.677 0 0 1 135.188 91.125 Q 133.375 91.125 131.719 90.656 Q 130.063 90.188 128.25 90.063 A 7.442 7.442 0 0 1 126.179 89.603 A 5.688 5.688 0 0 1 123.719 87.781 A 8.06 8.06 0 0 1 122.054 83.628 A 10.079 10.079 0 0 1 122 82.938 A 12.567 12.567 0 0 1 126.094 81.313 Q 128.25 80.875 130.438 80.875 Q 131.688 80.875 132.906 80.938 Q 134.125 81 135.375 81.125 Q 135.188 76.438 134.563 71.75 Q 133.938 67.063 133.938 62.313 A 56.415 56.415 0 0 1 134.031 59.063 A 24.738 24.738 0 0 1 134.438 55.813 Q 134.75 54.188 135.25 52.594 Q 135.75 51 135.75 49.375 A 6.34 6.34 0 0 0 135.615 48.048 A 5.474 5.474 0 0 0 135.438 47.406 A 12.234 12.234 0 0 0 134.891 46.087 A 14.31 14.31 0 0 0 134.625 45.563 A 4.39 4.39 0 0 1 134.111 44.17 A 5.161 5.161 0 0 1 134.063 43.875 A 32.954 32.954 0 0 0 133.75 41.969 Q 133.563 41 133.188 40.063 A 4.298 4.298 0 0 0 132.339 38.737 A 5.278 5.278 0 0 0 131.969 38.375 A 4.58 4.58 0 0 0 131.105 37.779 Q 130.669 37.542 130.135 37.352 A 9.203 9.203 0 0 0 129.625 37.188 A 9.21 9.21 0 0 0 128.483 36.938 Q 127.885 36.844 127.186 36.797 A 22.351 22.351 0 0 0 125.688 36.75 Q 125.064 36.75 123.943 36.901 A 35.065 35.065 0 0 0 123.469 36.969 A 41.734 41.734 0 0 0 120.564 37.51 A 45.418 45.418 0 0 0 120.469 37.531 A 27.161 27.161 0 0 0 118.364 38.09 A 23.463 23.463 0 0 0 117.594 38.344 A 10.486 10.486 0 0 0 116.939 38.595 Q 116.117 38.945 115.75 39.313 A 7.866 7.866 0 0 0 115.539 39.532 Q 115.291 39.801 114.969 40.188 A 42.178 42.178 0 0 1 114.23 41.049 A 47.826 47.826 0 0 1 113.969 41.344 A 18.695 18.695 0 0 1 113.381 41.972 A 14.907 14.907 0 0 1 112.938 42.406 Q 112.499 42.818 112.156 42.916 A 0.837 0.837 0 0 1 112.063 42.938 Q 111.125 43.125 110.656 43.25 A 2.316 2.316 0 0 0 110.306 43.372 Q 110.118 43.457 109.973 43.57 A 1.336 1.336 0 0 0 109.906 43.625 A 1.483 1.483 0 0 0 109.663 43.907 Q 109.537 44.095 109.438 44.344 Q 109.25 44.813 108.813 45.688 A 19.544 19.544 0 0 1 108.746 45.819 Q 108.605 46.095 108.313 46.656 A 3.041 3.041 0 0 1 108.151 46.932 Q 107.857 47.375 107.563 47.375 A 0.779 0.779 0 0 1 107.558 47.375 Q 107.462 47.374 107.385 47.35 A 0.421 0.421 0 0 1 107.125 47.125 Q 107.018 46.911 106.774 46.88 A 0.688 0.688 0 0 0 106.688 46.875 Q 106.563 46.875 106.344 47.031 A 4.125 4.125 0 0 0 106.204 47.135 Q 106.143 47.183 106.092 47.227 A 1.793 1.793 0 0 0 106 47.313 Z M 313.25 83.125 L 313.25 83 A 1.103 1.103 0 0 1 312.867 82.938 Q 312.542 82.818 312.4 82.465 A 1.469 1.469 0 0 1 312.313 82.125 A 0.898 0.898 0 0 1 312.579 81.81 A 1.177 1.177 0 0 1 312.719 81.719 Q 313 81.563 313.313 81.469 A 1.783 1.783 0 0 0 313.875 81.188 A 0.606 0.606 0 0 0 314.109 80.802 A 0.938 0.938 0 0 0 314.125 80.625 L 314.125 80.375 Q 316.625 80.625 319.031 80.688 A 187.833 187.833 0 0 0 322.764 80.746 A 213.692 213.692 0 0 0 324.063 80.75 A 89.147 89.147 0 0 0 326.633 80.711 A 120.016 120.016 0 0 0 329.469 80.594 A 25.375 25.375 0 0 0 333.009 80.167 A 21.276 21.276 0 0 0 334.969 79.688 A 12.191 12.191 0 0 0 337.429 78.67 A 9.9 9.9 0 0 0 339.219 77.406 Q 340.938 75.875 340.938 73.125 L 340.938 72.688 L 340.938 71.688 A 2194.62 2194.62 0 0 0 340.281 58.156 A 262.364 262.364 0 0 1 339.938 44.625 A 21.835 21.835 0 0 0 339.656 41.094 A 21.444 21.444 0 0 1 339.375 37.625 A 12.871 12.871 0 0 1 340.085 33.455 A 14.55 14.55 0 0 1 340.156 33.25 A 8.812 8.812 0 0 1 342.625 29.563 Q 342.577 29.272 342.415 29.112 A 0.593 0.593 0 0 0 342.313 29.031 Q 342.063 28.875 341.688 28.813 Q 341.313 28.75 340.969 28.688 Q 340.625 28.625 340.375 28.5 Q 340.014 28.319 339.884 27.674 A 2.811 2.811 0 0 1 339.875 27.625 A 20.808 20.808 0 0 1 339.758 26.906 A 26.345 26.345 0 0 1 339.656 26.125 A 352.61 352.61 0 0 0 339.469 24.531 Q 339.375 23.75 339.063 23.313 Q 339.25 21.5 339.688 19.75 Q 340.125 18 340.125 16.188 Q 340.125 14.875 339.781 14.125 Q 339.443 13.387 339.015 12.892 A 3.768 3.768 0 0 0 339 12.875 A 86.252 86.252 0 0 1 338.598 12.413 Q 338.409 12.193 338.241 11.995 A 50.789 50.789 0 0 1 338.219 11.969 Q 337.875 11.563 337.875 10.938 A 1.564 1.564 0 0 1 338.14 10.069 A 1.934 1.934 0 0 1 338.188 10 L 337.688 9.938 A 1.992 1.992 0 0 0 337.336 9.967 Q 336.967 10.033 336.75 10.25 A 6.367 6.367 0 0 0 336.192 10.891 A 6.992 6.992 0 0 0 336.156 10.938 Q 335.875 11.313 335.563 11.625 Q 335.25 11.938 334.688 11.938 A 2.479 2.479 0 0 1 334.281 11.902 Q 334.082 11.868 333.862 11.805 A 4.731 4.731 0 0 1 333.688 11.75 Q 332.625 12.063 331.688 12.063 A 16.293 16.293 0 0 1 327.344 11.469 A 16.293 16.293 0 0 0 323 10.875 A 27.846 27.846 0 0 0 320.688 10.969 A 27.082 27.082 0 0 1 318.438 11.063 Q 316.813 11.063 315.188 10.688 Q 313.619 10.326 312.4 9.149 A 6.999 6.999 0 0 1 312.313 9.063 L 312.313 8.313 A 7.838 7.838 0 0 1 312.563 6.27 A 5.361 5.361 0 0 1 314.531 3.313 A 8.212 8.212 0 0 1 318.45 1.724 A 10.842 10.842 0 0 1 319.938 1.625 Q 322.125 1.625 324.25 2.188 Q 326.375 2.75 328.563 2.75 A 12.651 12.651 0 0 0 330.253 2.632 A 15.147 15.147 0 0 0 331.063 2.5 A 77.873 77.873 0 0 0 333.729 1.942 A 89.418 89.418 0 0 0 333.75 1.938 A 59.691 59.691 0 0 1 336.531 1.375 Q 337.938 1.125 339.313 1.125 A 9.073 9.073 0 0 1 343.313 2.031 A 99.842 99.842 0 0 0 347.063 3.75 L 347 4.25 A 1.967 1.967 0 0 0 347.281 5.281 A 8.235 8.235 0 0 0 347.756 5.984 A 9.492 9.492 0 0 0 347.938 6.219 Q 348.313 6.688 348.594 7.156 A 1.967 1.967 0 0 1 348.875 8.188 A 3.856 3.856 0 0 1 348.719 9.281 A 3.856 3.856 0 0 0 348.563 10.375 A 6.643 6.643 0 0 0 349.094 13 A 6.777 6.777 0 0 1 349.625 15.598 A 7.732 7.732 0 0 1 349.625 15.688 A 12.586 12.586 0 0 1 349.281 18.625 A 12.586 12.586 0 0 0 348.938 21.563 Q 348.938 23.375 349.375 25.188 Q 349.813 27 349.813 28.813 A 9.418 9.418 0 0 1 349.344 31.75 A 9.227 9.227 0 0 0 348.875 34.625 Q 348.875 35.688 349.156 36.719 Q 349.438 37.75 349.813 38.75 Q 350.188 39.75 350.469 40.781 A 8.159 8.159 0 0 1 350.75 42.938 L 350.75 44.188 A 11.569 11.569 0 0 1 350.662 45.635 A 10.234 10.234 0 0 1 350.594 46.094 Q 350.438 47 349.75 47.813 A 192.996 192.996 0 0 1 350.07 49.047 A 239.271 239.271 0 0 1 350.406 50.375 A 11.642 11.642 0 0 1 350.701 52.035 A 9.66 9.66 0 0 1 350.75 53 A 9.522 9.522 0 0 1 350.717 53.775 A 11.893 11.893 0 0 1 350.656 54.344 Q 350.563 55.063 350.344 55.781 Q 350.125 56.5 349.75 57.094 A 3.866 3.866 0 0 1 349.261 57.722 A 3.257 3.257 0 0 1 348.875 58.063 Q 349.688 60.438 349.938 62.875 Q 350.188 65.313 350.313 67.75 A 16.726 16.726 0 0 0 350.364 68.261 Q 350.434 68.871 350.563 69.688 A 570.521 570.521 0 0 0 350.938 72.031 A 2906.472 2906.472 0 0 1 351.117 73.141 A 2229.514 2229.514 0 0 1 351.281 74.156 A 25.452 25.452 0 0 1 351.348 74.591 Q 351.438 75.216 351.438 75.5 Q 351.438 76.563 351.063 77.563 Q 350.688 78.563 350.688 79.625 A 3.995 3.995 0 0 0 350.813 80.596 A 5.362 5.362 0 0 0 351.063 81.344 Q 351.438 82.25 352.438 82.25 A 2.73 2.73 0 0 0 353.062 82.182 A 2.067 2.067 0 0 0 353.719 81.906 A 590.831 590.831 0 0 0 354.273 81.547 A 755.188 755.188 0 0 0 354.875 81.156 A 7.532 7.532 0 0 1 355.555 80.766 A 10.188 10.188 0 0 1 356.344 80.406 A 3.945 3.945 0 0 1 357.027 80.204 Q 357.704 80.063 358.625 80.063 A 10.756 10.756 0 0 1 361.003 80.319 A 9.683 9.683 0 0 1 361.688 80.5 A 10.264 10.264 0 0 0 364.247 80.927 A 11.757 11.757 0 0 0 364.75 80.938 A 13.6 13.6 0 0 0 367.156 80.719 Q 368.375 80.5 369.531 80.219 A 77.245 77.245 0 0 1 371.875 79.688 Q 373.063 79.438 374.313 79.438 A 7.198 7.198 0 0 1 376.451 79.743 A 5.958 5.958 0 0 1 378.531 80.875 Q 380.232 82.297 380.25 85.066 A 9.145 9.145 0 0 1 380.25 85.125 A 5.248 5.248 0 0 1 380.03 86.681 A 4.101 4.101 0 0 1 378.781 88.594 A 9.467 9.467 0 0 1 376.154 90.202 A 11.413 11.413 0 0 1 375.25 90.531 A 19.485 19.485 0 0 1 370.969 91.375 A 63.279 63.279 0 0 1 369.397 91.489 Q 368.781 91.526 368.228 91.544 A 31.499 31.499 0 0 1 367.188 91.563 Q 365.125 91.563 363.781 91.188 A 27.193 27.193 0 0 1 362.671 90.853 Q 362.126 90.676 361.652 90.492 A 15.388 15.388 0 0 1 361.438 90.406 A 30.723 30.723 0 0 1 360.61 90.057 Q 360.235 89.891 359.903 89.731 A 17.794 17.794 0 0 1 359.688 89.625 Q 358.938 89.25 358.125 89.25 A 6.085 6.085 0 0 0 356.031 89.625 Q 355 90 353.938 90 Q 353.387 90 352.989 89.866 A 1.783 1.783 0 0 1 352.719 89.75 A 3.141 3.141 0 0 1 352.241 89.439 A 2.57 2.57 0 0 1 351.938 89.156 A 9.308 9.308 0 0 0 351.633 88.836 A 6.787 6.787 0 0 0 351.344 88.563 A 0.957 0.957 0 0 0 350.688 88.313 Q 350.25 88.313 350 88.656 Q 349.767 88.977 349.479 89.38 A 154.738 154.738 0 0 0 349.438 89.438 A 2.361 2.361 0 0 1 349.055 89.852 Q 348.86 90.019 348.613 90.17 A 4.113 4.113 0 0 1 348.531 90.219 Q 347.938 90.563 346.813 90.563 A 11.638 11.638 0 0 1 344.25 90.281 A 11.638 11.638 0 0 0 341.688 90 A 7.498 7.498 0 0 0 339.094 90.469 Q 337.813 90.938 336.688 90.938 A 1.154 1.154 0 0 1 336.386 90.901 A 0.794 0.794 0 0 1 335.938 90.594 A 1.122 1.122 0 0 0 335.788 90.424 Q 335.69 90.334 335.583 90.291 A 0.546 0.546 0 0 0 335.375 90.25 A 5.053 5.053 0 0 0 334.045 90.436 A 6.625 6.625 0 0 0 333.156 90.75 Q 332 91.25 330.813 91.25 A 4.769 4.769 0 0 1 329.594 91.094 A 4.769 4.769 0 0 0 328.375 90.938 A 4.793 4.793 0 0 0 326.682 91.255 A 5.781 5.781 0 0 0 326.25 91.438 A 4.897 4.897 0 0 1 325.144 91.796 Q 324.627 91.902 324.031 91.929 A 9.163 9.163 0 0 1 323.625 91.938 Q 323.063 91.938 321.156 91.781 A 53.621 53.621 0 0 1 317.375 91.332 A 58.503 58.503 0 0 1 317.25 91.313 A 32.743 32.743 0 0 1 315.352 90.961 A 24.338 24.338 0 0 1 313.656 90.531 A 7.84 7.84 0 0 1 313.115 90.352 Q 312.309 90.05 312.12 89.711 A 0.429 0.429 0 0 1 312.063 89.5 Q 312.063 87.875 312.656 86.25 A 10.052 10.052 0 0 0 313.132 84.486 A 8.112 8.112 0 0 0 313.25 83.125 Z M 243.438 55.938 L 243.438 55.25 A 0.807 0.807 0 0 0 243.404 55.028 Q 243.358 54.868 243.25 54.688 A 5.963 5.963 0 0 0 242.844 54.094 A 5.843 5.843 0 0 0 242.584 53.782 A 4.725 4.725 0 0 0 242.406 53.594 A 3.364 3.364 0 0 0 242.33 53.519 Q 242.181 53.38 242.128 53.375 A 0.039 0.039 0 0 0 242.125 53.375 Q 242.051 53.375 242.021 53.397 A 0.048 0.048 0 0 0 242 53.438 A 6.166 6.166 0 0 1 242.045 53.119 Q 242.133 52.586 242.344 51.719 Q 242.625 50.563 243 49.344 Q 243.375 48.125 243.75 47.094 A 10.21 10.21 0 0 1 243.922 46.65 Q 244.198 45.989 244.438 45.75 A 10.734 10.734 0 0 0 245.156 45.094 A 1.154 1.154 0 0 0 245.481 44.439 A 1.616 1.616 0 0 0 245.5 44.188 Q 245.5 43.625 245.438 43.094 Q 245.375 42.563 245.375 42 Q 245.375 41.363 245.51 41.155 A 0.267 0.267 0 0 1 245.563 41.094 Q 245.74 40.946 246.03 40.938 A 1.212 1.212 0 0 1 246.063 40.938 A 2.165 2.165 0 0 0 246.688 40.844 Q 246.953 40.764 247.219 40.345 A 3.145 3.145 0 0 0 247.313 40.188 A 67.134 67.134 0 0 1 248.003 38.842 A 55.208 55.208 0 0 1 248.406 38.094 A 14.082 14.082 0 0 1 249.331 36.623 A 12.626 12.626 0 0 1 249.563 36.313 Q 250.188 35.5 251 34.813 Q 251.761 34.169 252.851 33.58 A 15.327 15.327 0 0 1 253 33.5 Q 254 32.938 254.969 32.125 A 163.793 163.793 0 0 1 256.938 30.5 A 13.923 13.923 0 0 1 258.423 29.441 A 12.158 12.158 0 0 1 258.969 29.125 Q 260 28.563 261.188 28.563 A 9.326 9.326 0 0 0 264.469 27.969 A 20.059 20.059 0 0 1 267.688 27.063 A 497.85 497.85 0 0 1 272.781 26.344 A 38.277 38.277 0 0 1 277.938 26 A 11.197 11.197 0 0 1 279.104 26.066 Q 279.691 26.128 280.356 26.247 A 24.382 24.382 0 0 1 281.438 26.469 A 38.659 38.659 0 0 1 284.851 27.416 A 43.412 43.412 0 0 1 285.656 27.688 A 36.594 36.594 0 0 1 289.117 29.087 A 32.912 32.912 0 0 1 289.719 29.375 Q 291.138 30.073 292.124 30.771 A 10.017 10.017 0 0 1 292.75 31.25 L 292.75 31.438 Q 292.75 32.313 292.438 33.219 Q 292.125 34.125 292.125 35 L 292.125 35.25 Q 292.125 35.375 292.25 35.375 A 7.249 7.249 0 0 0 294.281 35.094 A 7.249 7.249 0 0 1 296.313 34.813 A 2.347 2.347 0 0 0 296.453 35.396 A 1.512 1.512 0 0 0 297.25 36.25 Q 298.063 36.625 298.875 36.938 A 2.917 2.917 0 0 1 299.513 37.379 Q 299.912 37.736 300.281 38.281 A 14.261 14.261 0 0 1 301.065 39.59 A 17.543 17.543 0 0 1 301.5 40.469 A 225.094 225.094 0 0 1 302.594 42.875 Q 302.995 43.773 303.379 44.42 A 8.729 8.729 0 0 0 303.625 44.813 A 8.097 8.097 0 0 1 304.102 45.633 Q 304.325 46.071 304.525 46.578 A 12.586 12.586 0 0 1 304.531 46.594 Q 304.938 47.625 305.219 48.75 Q 305.5 49.875 305.625 50.969 A 19.958 19.958 0 0 1 305.726 52.15 A 15.674 15.674 0 0 1 305.75 53 A 5.531 5.531 0 0 1 305.678 53.915 Q 305.567 54.58 305.281 55.094 A 9.555 9.555 0 0 1 304.609 56.143 A 8.115 8.115 0 0 1 304.25 56.594 A 43.431 43.431 0 0 0 303.584 57.39 A 35.52 35.52 0 0 0 303.219 57.844 Q 302.75 58.438 302.75 59.188 Q 302.75 59.625 302.938 60 A 2.637 2.637 0 0 0 303.435 60.685 A 3.008 3.008 0 0 0 303.438 60.688 Q 303.547 60.633 303.871 60.578 A 6.929 6.929 0 0 1 303.969 60.563 Q 304.368 60.501 304.375 60.198 A 0.471 0.471 0 0 0 304.375 60.188 L 304.375 60.125 A 1.247 1.247 0 0 0 304.174 59.453 A 1.779 1.779 0 0 0 303.969 59.188 A 1.505 1.505 0 0 1 303.563 58.125 A 0.392 0.392 0 0 1 303.57 58.053 Q 303.594 57.93 303.688 57.719 A 0.846 0.846 0 0 1 303.749 57.603 Q 303.841 57.461 303.96 57.441 A 0.24 0.24 0 0 1 304 57.438 A 0.679 0.679 0 0 1 304.328 57.527 Q 304.439 57.588 304.551 57.69 A 1.924 1.924 0 0 1 304.75 57.906 A 12.265 12.265 0 0 1 305.469 58.906 Q 305.716 59.289 305.883 59.59 A 6.163 6.163 0 0 1 306 59.813 A 5.23 5.23 0 0 0 306.034 59.878 Q 306.188 60.176 306.188 60.063 L 306.125 60 Q 306.188 60.313 306.219 60.531 A 3.096 3.096 0 0 1 306.246 60.817 A 3.729 3.729 0 0 1 306.25 61 A 4.857 4.857 0 0 1 305.977 62.632 A 4.645 4.645 0 0 1 305.969 62.656 A 8.855 8.855 0 0 1 305.691 63.341 Q 305.526 63.701 305.344 64 A 16.508 16.508 0 0 1 305.095 64.396 Q 304.97 64.588 304.854 64.751 A 8.066 8.066 0 0 1 304.719 64.938 A 9.857 9.857 0 0 0 304.653 65.026 Q 304.478 65.265 304.445 65.346 A 0.085 0.085 0 0 0 304.438 65.375 A 2.182 2.182 0 0 0 304.552 66.057 Q 304.64 66.325 304.796 66.605 A 3.895 3.895 0 0 0 304.844 66.688 Q 305.25 67.375 305.25 68.188 A 0.767 0.767 0 0 1 305.229 68.374 A 0.443 0.443 0 0 1 304.969 68.688 Q 304.688 68.813 304.375 68.813 A 4.186 4.186 0 0 1 303.981 68.795 Q 303.673 68.766 303.438 68.688 A 27.199 27.199 0 0 0 303.656 71 A 16.794 16.794 0 0 1 303.813 73.313 Q 303.813 74.955 303.53 75.545 A 0.992 0.992 0 0 1 303.469 75.656 A 2.604 2.604 0 0 1 303.273 75.923 Q 303.025 76.216 302.762 76.308 A 0.796 0.796 0 0 1 302.75 76.313 A 7.36 7.36 0 0 0 302.031 76.594 A 0.404 0.404 0 0 0 301.852 76.771 Q 301.688 77.059 301.688 77.75 A 1.105 1.105 0 0 1 301.612 78.13 Q 301.491 78.46 301.173 78.869 A 6.096 6.096 0 0 1 300.906 79.188 A 13.692 13.692 0 0 1 299.943 80.158 A 17.876 17.876 0 0 1 299.031 80.938 A 15.271 15.271 0 0 1 297.069 82.277 A 13.97 13.97 0 0 1 296.781 82.438 A 8.404 8.404 0 0 1 296.184 82.733 Q 295.601 82.99 295.169 83.047 A 1.786 1.786 0 0 1 294.938 83.063 A 0.696 0.696 0 0 1 294.782 83.043 Q 294.652 83.014 294.5 82.938 A 8.993 8.993 0 0 0 294.524 83.587 A 10.83 10.83 0 0 0 294.563 84 A 10.34 10.34 0 0 1 294.616 84.679 A 8.582 8.582 0 0 1 294.625 85.063 Q 294.625 85.875 294.125 86.156 A 8.528 8.528 0 0 1 293.523 86.463 A 10.84 10.84 0 0 1 293 86.688 Q 292.063 87.125 291.063 87.969 A 225.149 225.149 0 0 1 289 89.688 A 18.204 18.204 0 0 1 287.253 90.965 A 16.288 16.288 0 0 1 286.844 91.219 Q 285.75 91.875 284.563 91.875 A 3.551 3.551 0 0 1 282.719 91.375 A 3.566 3.566 0 0 0 281.361 90.915 A 4.58 4.58 0 0 0 280.75 90.875 A 5.917 5.917 0 0 0 280.016 90.918 Q 279.481 90.985 279.063 91.156 A 10.695 10.695 0 0 0 278.012 91.652 A 9.515 9.515 0 0 0 277.781 91.781 A 13.433 13.433 0 0 1 276.563 92.406 A 3.146 3.146 0 0 1 275.72 92.646 A 4.133 4.133 0 0 1 275.125 92.688 A 6.674 6.674 0 0 1 272.691 92.214 A 8.296 8.296 0 0 1 271.875 91.844 A 23.925 23.925 0 0 0 270.086 91.003 A 19.189 19.189 0 0 0 268.75 90.5 A 10.017 10.017 0 0 0 267.276 90.101 A 11.454 11.454 0 0 0 266.875 90.031 A 46.686 46.686 0 0 1 265.055 89.711 A 42.869 42.869 0 0 1 264.938 89.688 A 7.462 7.462 0 0 1 263.156 89.094 A 4.36 4.36 0 0 1 261.688 87.938 Q 260.375 86.313 258.625 85.25 Q 256.875 84.188 255.063 83.25 A 56.402 56.402 0 0 1 251.563 81.281 A 10.328 10.328 0 0 1 248.743 78.719 A 11.778 11.778 0 0 1 248.625 78.563 A 78.953 78.953 0 0 0 247.625 77.195 A 103.922 103.922 0 0 0 246.5 75.719 A 35.188 35.188 0 0 1 244.281 72.5 Q 243.25 70.813 242.563 69.063 Q 241.875 67.313 241.875 65.625 Q 241.875 64.375 242.125 63.188 A 127.681 127.681 0 0 1 242.656 60.781 A 127.681 127.681 0 0 0 243.188 58.375 Q 243.438 57.188 243.438 55.938 Z M 294.5 58.875 L 294.5 58.25 A 13.588 13.588 0 0 0 294.439 57.006 Q 294.381 56.381 294.269 55.682 A 25.858 25.858 0 0 0 294.156 55.031 Q 293.813 53.188 293.313 51.281 Q 292.813 49.375 292.25 47.531 Q 291.688 45.688 291.188 44.25 A 517.656 517.656 0 0 0 290.949 43.566 Q 290.657 42.731 290.443 42.128 A 150.998 150.998 0 0 0 290.375 41.938 L 290.063 41.063 Q 289.563 41.188 289.25 41.188 A 4.342 4.342 0 0 1 288.323 41.093 A 3.308 3.308 0 0 1 287.406 40.75 Q 286.625 40.313 285.656 39.813 Q 284.845 39.394 283.727 39.019 A 21.396 21.396 0 0 0 283.281 38.875 A 8.145 8.145 0 0 0 282.207 38.626 Q 281.644 38.532 280.983 38.485 A 20.044 20.044 0 0 0 279.563 38.438 Q 277 38.438 274.5 38.094 Q 272 37.75 269.438 37.75 Q 265.938 37.75 262.875 39.344 Q 259.813 40.938 257.5 43.531 Q 255.188 46.125 253.875 49.375 A 17.528 17.528 0 0 0 252.576 55.265 A 16.684 16.684 0 0 0 252.563 55.938 A 72.8 72.8 0 0 0 252.571 57.035 Q 252.586 58.004 252.625 59.156 Q 252.688 61 252.938 62.844 A 18.005 18.005 0 0 0 253.458 65.365 A 15.646 15.646 0 0 0 253.75 66.281 Q 254.214 67.595 254.974 68.378 A 3.907 3.907 0 0 0 255.313 68.688 L 255.313 70.438 A 0.945 0.945 0 0 0 255.781 70.691 A 1.282 1.282 0 0 0 255.969 70.719 A 10.59 10.59 0 0 0 256.781 70.75 A 2.995 2.995 0 0 1 257.142 70.771 Q 257.334 70.794 257.5 70.844 A 0.635 0.635 0 0 1 257.781 71.023 Q 257.859 71.106 257.925 71.223 A 1.546 1.546 0 0 1 258 71.375 Q 258.636 73.184 259.578 74.324 A 6.062 6.062 0 0 0 260.125 74.906 Q 261.438 76.125 262.938 76.969 L 265.938 78.656 A 8.27 8.27 0 0 1 267.631 79.934 A 10.902 10.902 0 0 1 268.688 81.125 A 14.733 14.733 0 0 1 269.405 81.054 A 17.403 17.403 0 0 1 269.75 81.031 A 20.533 20.533 0 0 1 270.429 81.004 A 17.154 17.154 0 0 1 270.813 81 Q 272.813 81 274.719 81.281 A 26.299 26.299 0 0 0 278.563 81.563 Q 280.625 81.563 282.281 80.5 A 10.566 10.566 0 0 0 285.125 77.813 A 37.456 37.456 0 0 1 285.67 77.06 Q 286.109 76.469 286.5 76 A 20.991 20.991 0 0 1 287.781 74.594 A 14.021 14.021 0 0 1 289.17 73.381 A 15.341 15.341 0 0 1 289.219 73.344 A 50.188 50.188 0 0 1 289.844 72.876 Q 290.121 72.673 290.426 72.454 A 87.039 87.039 0 0 1 291.063 72 A 29.722 29.722 0 0 0 291.366 71.795 Q 291.501 71.702 291.652 71.597 A 60.691 60.691 0 0 0 291.969 71.375 A 12.143 12.143 0 0 0 292.766 70.76 A 13.821 13.821 0 0 0 293.031 70.531 A 8.458 8.458 0 0 0 293.573 70.011 A 6.591 6.591 0 0 0 293.938 69.594 Q 294.313 69.125 294.313 68.688 A 4.187 4.187 0 0 0 294.156 67.563 Q 294 67 294 66.438 Q 294 65.965 294.107 65.35 A 10.866 10.866 0 0 1 294.188 64.938 A 7.074 7.074 0 0 1 294.781 63.25 A 4.868 4.868 0 0 1 295.298 62.425 A 4.001 4.001 0 0 1 295.781 61.906 Q 296.375 61.375 297.25 61.375 A 3.206 3.206 0 0 1 298.367 61.581 A 3.828 3.828 0 0 1 298.625 61.688 Q 299.313 62 299.875 62.438 A 10.83 10.83 0 0 0 299.93 62.145 Q 300 61.734 300 61.5 A 2.011 2.011 0 0 0 299.956 61.061 Q 299.818 60.447 299.25 60.281 A 6.983 6.983 0 0 0 298.374 60.089 A 9.227 9.227 0 0 0 297.563 60 Q 296.625 59.938 295.719 59.813 A 1.713 1.713 0 0 1 295.169 59.647 Q 294.735 59.425 294.527 58.941 A 1.836 1.836 0 0 1 294.5 58.875 Z M 16.125 41.375 A 1.958 1.958 0 0 0 15.683 41.423 A 1.676 1.676 0 0 0 15.438 41.5 A 0.643 0.643 0 0 0 15.139 41.749 Q 15.053 41.878 15 42.063 Q 16.717 43.057 17.928 43.969 A 16.09 16.09 0 0 1 18.781 44.656 A 106.888 106.888 0 0 1 19.445 45.236 Q 20.09 45.804 20.568 46.248 A 31.508 31.508 0 0 1 20.969 46.625 Q 21.677 47.305 22.051 47.445 A 0.678 0.678 0 0 0 22.125 47.469 Q 22.478 47.557 22.831 46.786 A 4.373 4.373 0 0 0 22.875 46.688 A 2.591 2.591 0 0 0 23.044 46.177 Q 23.224 45.333 22.719 44.563 A 5.201 5.201 0 0 0 21.461 43.244 A 6.418 6.418 0 0 0 20.906 42.875 A 11.227 11.227 0 0 0 18.406 41.781 A 12.004 12.004 0 0 0 17.53 41.55 Q 16.74 41.375 16.125 41.375 Z M 96.438 58.875 L 96.188 58.875 Q 96 59.563 96 60.188 L 96.063 60.563 L 96.125 60.375 A 1.903 1.903 0 0 0 96.441 61.032 A 1.774 1.774 0 0 0 96.875 61.438 A 7.548 7.548 0 0 0 98.073 62.085 A 8.301 8.301 0 0 0 98.094 62.094 A 25.748 25.748 0 0 0 99.438 62.625 A 3.901 3.901 0 0 1 100.259 63.034 A 3.41 3.41 0 0 1 100.625 63.313 A 1.868 1.868 0 0 0 101.021 62.57 Q 101.099 62.296 101.119 61.972 A 3.714 3.714 0 0 0 101.125 61.75 A 3.105 3.105 0 0 0 101.103 61.396 Q 101.082 61.217 101.043 61.015 A 6.781 6.781 0 0 0 100.969 60.688 A 6.555 6.555 0 0 0 100.531 59.469 A 3.885 3.885 0 0 0 100.175 58.86 A 3.178 3.178 0 0 0 99.844 58.469 A 1.368 1.368 0 0 0 99.337 58.14 A 1.356 1.356 0 0 0 98.875 58.063 Q 98.188 58.063 97.688 58.469 A 1.793 1.793 0 0 1 96.824 58.846 A 2.437 2.437 0 0 1 96.438 58.875 Z M 142.688 75.188 A 0.88 0.88 0 0 0 142.405 74.523 A 1.107 1.107 0 0 0 142.344 74.469 A 3.882 3.882 0 0 0 141.672 74.024 A 3.607 3.607 0 0 0 141.625 74 Q 141.5 74.375 141.188 74.75 A 13.279 13.279 0 0 0 140.724 75.341 A 15.341 15.341 0 0 0 140.563 75.563 A 21.622 21.622 0 0 0 139.969 76.438 A 1.912 1.912 0 0 0 139.777 76.82 A 1.439 1.439 0 0 0 139.688 77.313 A 1.27 1.27 0 0 0 139.72 77.607 Q 139.774 77.835 139.92 77.989 A 0.79 0.79 0 0 0 140 78.063 Q 140.313 78.313 140.75 78.5 A 1.199 1.199 0 0 1 140.881 78.128 Q 140.983 77.939 141.156 77.75 A 8.562 8.562 0 0 0 141.793 76.965 A 9.285 9.285 0 0 0 141.813 76.938 Q 142.125 76.5 142.406 76.094 A 1.556 1.556 0 0 0 142.688 75.188 Z M 141.625 63.313 L 141.625 63.188 A 2.008 2.008 0 0 0 141.408 62.291 A 2.631 2.631 0 0 0 141.219 61.969 A 1.45 1.45 0 0 0 140.867 61.601 Q 140.549 61.375 140.125 61.375 Q 139.536 61.375 139.268 61.856 A 1.34 1.34 0 0 0 139.188 62.031 A 4.186 4.186 0 0 0 139.017 62.588 Q 138.945 62.901 138.938 63.19 A 2.565 2.565 0 0 0 138.938 63.25 Q 138.938 63.938 139.188 64.563 A 0.996 0.996 0 0 0 139.445 64.943 Q 139.719 65.188 140.188 65.188 A 1.538 1.538 0 0 0 140.596 65.136 A 1.097 1.097 0 0 0 141.156 64.781 A 1.334 1.334 0 0 0 141.345 64.473 Q 141.494 64.148 141.58 63.634 A 6.751 6.751 0 0 0 141.625 63.313 Z M 346.188 23.313 L 346.188 26 Q 346.572 26.192 346.808 26.237 A 0.705 0.705 0 0 0 346.938 26.25 A 1.144 1.144 0 0 0 347.323 26.189 Q 347.631 26.079 347.812 25.775 A 1.256 1.256 0 0 0 347.844 25.719 A 2.604 2.604 0 0 0 348.041 25.244 A 1.945 1.945 0 0 0 348.125 24.688 A 1.973 1.973 0 0 0 348.021 24.067 A 2.663 2.663 0 0 0 347.844 23.656 Q 347.563 23.125 346.938 23.125 A 1.302 1.302 0 0 0 346.723 23.144 A 1.747 1.747 0 0 0 346.531 23.188 A 3.317 3.317 0 0 0 346.404 23.227 Q 346.273 23.27 346.188 23.313 Z M 342.25 7.438 L 342.563 8.188 A 2.212 2.212 0 0 0 342.68 8.242 Q 342.793 8.291 342.873 8.306 A 0.352 0.352 0 0 0 342.938 8.313 A 1.198 1.198 0 0 0 343.434 8.211 A 1.164 1.164 0 0 0 343.781 7.969 Q 344.125 7.625 344.375 7.313 A 4.377 4.377 0 0 0 344.083 7.047 A 5.772 5.772 0 0 0 343.781 6.813 Q 343.438 6.563 343 6.563 A 0.624 0.624 0 0 0 342.547 6.755 A 0.918 0.918 0 0 0 342.469 6.844 A 1.097 1.097 0 0 0 342.315 7.105 A 0.878 0.878 0 0 0 342.25 7.438 Z" vector-effect="non-scaling-stroke"/></g></svg>