<svg width="298.688" height="93.563" viewBox="0 0 298.688 93.563" xmlns="http://www.w3.org/2000/svg"><g id="svgGroup" stroke-linecap="round" fill-rule="evenodd" font-size="9pt" stroke="#000" stroke-width="0.25mm" fill="black" style="stroke:#000;stroke-width:0.25mm;fill:black"><path d="M 50.688 82.375 L 50.688 83.125 A 0.252 0.252 0 0 1 50.612 83.286 Q 50.372 83.558 49.375 83.938 A 47.669 47.669 0 0 1 48.316 84.326 Q 47.844 84.493 47.319 84.669 A 89.28 89.28 0 0 1 46.219 85.031 A 213.237 213.237 0 0 1 42.652 86.145 A 232.981 232.981 0 0 1 42.406 86.219 A 44.263 44.263 0 0 0 41.022 86.66 Q 39.945 87.023 39.125 87.375 Q 36.563 88.438 33.938 89.125 Q 31.313 89.813 28.5 89.813 A 14.715 14.715 0 0 1 24.531 89.281 Q 22.625 88.75 20.719 88.094 Q 18.813 87.438 16.906 86.906 A 14.715 14.715 0 0 0 12.938 86.375 A 6.965 6.965 0 0 0 12.381 86.399 Q 11.759 86.45 10.931 86.603 A 22.837 22.837 0 0 0 10.813 86.625 A 8.036 8.036 0 0 0 10.053 86.806 Q 9.675 86.917 9.369 87.056 A 3.198 3.198 0 0 0 8.813 87.375 A 1.366 1.366 0 0 0 8.617 87.571 Q 8.435 87.791 8.252 88.15 A 5.589 5.589 0 0 0 8.188 88.281 Q 7.875 88.938 7.438 88.938 A 1.111 1.111 0 0 1 7.23 88.915 Q 7.022 88.876 6.741 88.763 A 5.214 5.214 0 0 1 6.563 88.688 A 48.223 48.223 0 0 1 6.301 88.57 Q 5.938 88.406 5.75 88.313 Q 4.313 87.563 3.313 86.344 A 13.042 13.042 0 0 1 1.625 83.687 A 12.626 12.626 0 0 1 0.625 80.656 A 16.459 16.459 0 0 1 0.325 78.176 A 14.687 14.687 0 0 1 0.313 77.562 A 10.062 10.062 0 0 1 0.531 75.469 A 10.062 10.062 0 0 0 0.75 73.375 A 12.586 12.586 0 0 0 0.406 70.438 A 12.586 12.586 0 0 1 0.063 67.5 A 6.869 6.869 0 0 1 0.406 65.375 A 6.869 6.869 0 0 0 0.75 63.25 Q 0.75 62.438 0.375 61.719 A 3.263 3.263 0 0 1 0 60.188 Q 0 59.625 0.406 59.25 A 1.351 1.351 0 0 0 0.669 58.925 A 1.096 1.096 0 0 0 0.813 58.375 Q 0.813 57.625 0.75 56.875 Q 0.688 56.125 0.688 55.375 A 12.43 12.43 0 0 1 0.69 55.166 Q 0.695 54.82 0.719 54.281 Q 0.75 53.563 0.875 52.875 A 3.836 3.836 0 0 1 1.047 52.234 A 2.957 2.957 0 0 1 1.313 51.688 A 1.152 1.152 0 0 1 1.57 51.393 Q 1.827 51.188 2.188 51.188 A 2.06 2.06 0 0 1 3.16 51.447 Q 3.79 51.781 4.429 52.546 A 7.506 7.506 0 0 1 4.469 52.594 A 17.051 17.051 0 0 1 5.825 54.508 A 21.343 21.343 0 0 1 6.594 55.875 A 26.594 26.594 0 0 1 8.026 59.156 A 24.208 24.208 0 0 1 8.188 59.625 A 26.136 26.136 0 0 1 8.197 59.652 Q 8.683 61.117 8.785 62.005 A 3.804 3.804 0 0 1 8.813 62.438 Q 8.813 62.75 8.563 63.031 A 0.824 0.824 0 0 1 8.252 63.255 A 0.838 0.838 0 0 1 7.938 63.313 A 4.395 4.395 0 0 1 8.092 63.611 Q 8.236 63.916 8.399 64.348 A 17.383 17.383 0 0 1 8.5 64.625 Q 8.771 65.383 8.807 65.86 A 1.856 1.856 0 0 1 8.813 66 A 4.712 4.712 0 0 1 8.594 67.437 A 4.712 4.712 0 0 0 8.375 68.875 Q 8.375 69.5 8.656 70.063 A 12.982 12.982 0 0 0 9.172 70.999 A 11.798 11.798 0 0 0 9.25 71.125 A 12.718 12.718 0 0 0 9.55 71.557 Q 9.834 71.946 10.07 72.194 A 3.419 3.419 0 0 0 10.125 72.25 A 2.43 2.43 0 0 0 10.541 72.587 A 1.988 1.988 0 0 0 10.938 72.781 A 4.071 4.071 0 0 0 11.521 72.94 A 5.049 5.049 0 0 0 11.906 73 Q 12.382 73.056 13.132 73.112 A 59.031 59.031 0 0 0 13.313 73.125 Q 14.563 74.938 16.125 76.5 Q 17.688 78.063 19.5 79.313 Q 22.313 79.938 25.063 80.313 Q 27.813 80.688 30.625 80.688 A 18.052 18.052 0 0 0 32.534 80.592 Q 33.689 80.469 34.656 80.188 Q 36.375 79.688 37.844 78.875 A 24.514 24.514 0 0 0 40.688 77.031 L 43.563 74.875 A 29.712 29.712 0 0 1 45.803 73.443 A 33.899 33.899 0 0 1 45.813 73.438 Q 47 72.75 48.125 72 A 18.165 18.165 0 0 0 50.25 70.344 A 8.665 8.665 0 0 0 51.938 68.25 Q 52.375 67.5 53.219 66.719 A 3.09 3.09 0 0 0 53.699 66.163 A 2.069 2.069 0 0 0 54.063 65 A 3.615 3.615 0 0 0 54.058 64.804 Q 54.048 64.622 54.018 64.5 A 0.79 0.79 0 0 0 54 64.437 Q 53.75 62.438 53.656 60.531 A 294.781 294.781 0 0 0 53.438 56.625 Q 53.359 55.439 53.054 54.615 A 3.573 3.573 0 0 0 52.625 53.781 A 6.096 6.096 0 0 0 50.906 52.156 A 30.123 30.123 0 0 0 49.272 51.189 A 34.641 34.641 0 0 0 48.688 50.875 A 8.702 8.702 0 0 1 47.317 49.971 A 11.306 11.306 0 0 1 46.375 49.125 Q 45.188 47.938 43.719 47.625 Q 42.25 47.313 40.688 47.25 A 50.257 50.257 0 0 1 37.594 47.031 A 5.501 5.501 0 0 1 34.957 46.026 A 6.618 6.618 0 0 1 34.75 45.875 A 2.326 2.326 0 0 0 34.552 45.756 Q 34.347 45.647 34.188 45.629 A 0.55 0.55 0 0 0 34.125 45.625 A 1.905 1.905 0 0 0 33.267 45.834 A 2.419 2.419 0 0 0 33.031 45.969 A 2.087 2.087 0 0 1 31.875 46.312 A 7.535 7.535 0 0 1 30.15 46.107 A 8.437 8.437 0 0 1 29.969 46.062 Q 29 45.813 28.063 45.5 L 26.188 44.875 Q 25.25 44.563 24.313 44.438 A 51 51 0 0 0 23.717 44.352 Q 22.867 44.234 22.281 44.188 A 10.466 10.466 0 0 1 21.442 44.088 A 8.354 8.354 0 0 1 20.844 43.969 A 6.587 6.587 0 0 1 20.164 43.766 A 8.92 8.92 0 0 1 19.438 43.469 Q 18.688 43.125 17.563 42.375 Q 14.313 40.25 10.625 39.25 A 20.718 20.718 0 0 0 9.534 36.926 A 25.097 25.097 0 0 0 8.813 35.688 A 127.968 127.968 0 0 0 7.489 34.856 A 118.313 118.313 0 0 0 7.469 34.844 A 13.03 13.03 0 0 1 6.188 33.937 A 5.577 5.577 0 0 1 5.986 33.566 Q 5.77 33.133 5.498 32.462 A 34.9 34.9 0 0 1 5.219 31.75 A 58.775 58.775 0 0 1 4.417 29.498 A 69.361 69.361 0 0 1 4.063 28.406 A 75.621 75.621 0 0 1 3.539 26.68 A 60.771 60.771 0 0 1 3.094 25.063 Q 2.688 23.5 2.688 22.813 Q 2.688 21.375 3 20.063 A 4.498 4.498 0 0 1 3.894 18.274 A 5.84 5.84 0 0 1 4.438 17.688 Q 4.564 17.604 4.732 17.477 A 12.788 12.788 0 0 0 4.906 17.344 A 0.82 0.82 0 0 0 5.071 17.175 A 0.608 0.608 0 0 0 5.188 16.812 A 0.383 0.383 0 0 0 5.045 16.516 Q 4.982 16.46 4.89 16.414 A 1.284 1.284 0 0 0 4.719 16.344 Q 4.317 16.21 4.26 15.823 A 0.925 0.925 0 0 1 4.25 15.688 A 0.21 0.21 0 0 1 4.254 15.651 Q 4.264 15.593 4.304 15.491 A 2.269 2.269 0 0 1 4.313 15.469 A 1.016 1.016 0 0 0 4.352 15.351 Q 4.375 15.264 4.375 15.188 A 9.655 9.655 0 0 1 5.633 12.641 A 10.779 10.779 0 0 1 5.688 12.563 Q 6.563 11.313 7.688 10.188 Q 8.813 9.063 10.031 8.094 A 68.246 68.246 0 0 1 11.518 6.944 A 57.386 57.386 0 0 1 12.375 6.312 A 5.38 5.38 0 0 0 13.668 5.036 A 6.164 6.164 0 0 0 13.781 4.875 A 5.154 5.154 0 0 1 14.24 4.289 Q 14.509 3.995 14.794 3.793 A 2.705 2.705 0 0 1 15.063 3.625 A 12.277 12.277 0 0 0 15.938 3.594 A 12.277 12.277 0 0 1 16.813 3.563 A 13.852 13.852 0 0 1 17.289 3.57 A 10.194 10.194 0 0 1 17.719 3.594 A 10.194 10.194 0 0 0 18.149 3.617 A 13.852 13.852 0 0 0 18.625 3.625 Q 19.313 3.375 19.563 3.031 A 18.07 18.07 0 0 1 20.031 2.414 A 16.512 16.512 0 0 1 20.063 2.375 A 1.703 1.703 0 0 1 20.537 1.97 A 2.092 2.092 0 0 1 20.719 1.875 A 1.369 1.369 0 0 1 20.963 1.793 Q 21.372 1.692 22.118 1.688 A 11.668 11.668 0 0 1 22.188 1.687 A 30.277 30.277 0 0 1 23.563 1.719 A 30.277 30.277 0 0 0 24.938 1.75 Q 27.313 1.75 29.656 1.688 Q 32 1.625 34.375 1.625 A 177.258 177.258 0 0 1 37.719 1.656 Q 39.375 1.688 41.063 1.938 A 11.053 11.053 0 0 1 43.25 2.406 A 7.218 7.218 0 0 0 45.352 2.749 A 8.125 8.125 0 0 0 45.5 2.75 Q 46.625 2.75 47.094 2.313 A 4.155 4.155 0 0 0 47.617 1.726 A 3.534 3.534 0 0 0 47.844 1.375 A 5.827 5.827 0 0 1 48.5 0.438 A 1.08 1.08 0 0 1 48.917 0.146 Q 49.248 0.009 49.746 0.001 A 3.889 3.889 0 0 1 49.813 0 A 5.571 5.571 0 0 1 51.447 0.255 A 7.401 7.401 0 0 1 52.531 0.688 Q 53.938 1.375 55.188 1.813 L 55.125 2.063 A 3.621 3.621 0 0 0 54.964 2.814 A 4.565 4.565 0 0 0 54.938 3.313 A 6.581 6.581 0 0 0 55.281 5.406 A 58.204 58.204 0 0 0 56 7.438 A 76.794 76.794 0 0 1 56.719 9.438 A 6.449 6.449 0 0 1 57.061 11.422 A 7.288 7.288 0 0 1 57.063 11.563 A 6.675 6.675 0 0 1 57.014 12.385 A 5.541 5.541 0 0 1 56.938 12.844 A 5.828 5.828 0 0 0 56.827 13.663 A 7.055 7.055 0 0 0 56.813 14.125 A 4.946 4.946 0 0 0 56.848 14.738 Q 56.932 15.409 57.216 15.791 A 1.298 1.298 0 0 0 57.313 15.906 A 2.805 2.805 0 0 1 57.549 16.19 Q 57.813 16.557 57.813 16.875 A 1.006 1.006 0 0 1 57.479 17.629 A 1.45 1.45 0 0 1 57.375 17.719 A 1.104 1.104 0 0 0 56.978 18.363 A 1.735 1.735 0 0 0 56.938 18.75 Q 56.938 20.375 57.125 21.969 Q 57.313 23.563 57.313 25.188 A 28.744 28.744 0 0 1 57.311 25.504 Q 57.307 25.866 57.294 26.379 A 135.198 135.198 0 0 1 57.281 26.875 Q 57.25 28 57.031 29.094 A 7.145 7.145 0 0 1 56.75 30.117 A 5.489 5.489 0 0 1 56.344 31 Q 55.875 31.813 55 31.813 Q 54.063 31.813 53.188 31.094 A 12.622 12.622 0 0 1 52.482 30.471 Q 52.067 30.074 51.75 29.688 A 5.846 5.846 0 0 1 50.84 28.411 A 5.229 5.229 0 0 1 50.563 27.781 Q 50.188 26.75 49.938 25.625 A 38.384 38.384 0 0 0 49.375 23.406 A 7.21 7.21 0 0 0 48.438 21.375 A 63.237 63.237 0 0 1 46.531 18.469 A 139.789 139.789 0 0 1 44.75 15.5 A 14.314 14.314 0 0 0 44.418 14.98 Q 44.06 14.448 43.76 14.13 A 2.874 2.874 0 0 0 43.563 13.937 A 3.003 3.003 0 0 0 43.014 13.552 A 2.468 2.468 0 0 0 42.5 13.344 A 4.103 4.103 0 0 0 41.899 13.227 Q 41.578 13.188 41.219 13.188 Q 40.699 13.188 40 13.089 A 16.099 16.099 0 0 1 39.438 13 A 13.853 13.853 0 0 1 37.219 12.438 A 89.293 89.293 0 0 0 35.031 11.719 A 38.718 38.718 0 0 0 32.813 11.094 A 9.246 9.246 0 0 0 30.563 10.812 A 12.55 12.55 0 0 0 27.46 11.213 A 14.339 14.339 0 0 0 26.875 11.375 A 30.483 30.483 0 0 0 23.125 12.781 Q 21.25 13.625 19.438 14.531 A 37.582 37.582 0 0 1 17.221 15.554 A 31.438 31.438 0 0 1 15.938 16.062 Q 14.375 19.375 14.375 23.188 A 19.981 19.981 0 0 0 14.449 24.96 Q 14.59 26.539 15 27.688 A 9.653 9.653 0 0 0 15.852 29.488 A 7.994 7.994 0 0 0 16.719 30.656 Q 17.813 31.875 19.219 32.813 A 359.518 359.518 0 0 1 20.664 33.781 A 424.929 424.929 0 0 1 22.188 34.813 A 11.036 11.036 0 0 0 23.805 35.695 A 8.449 8.449 0 0 0 25.406 36.219 Q 27 36.563 28.875 36.563 Q 29.938 36.563 30.969 36.5 Q 32 36.438 33.063 36.438 A 8.089 8.089 0 0 1 34.91 36.644 A 7.391 7.391 0 0 1 35.313 36.75 A 24.807 24.807 0 0 1 37.406 37.469 A 24.807 24.807 0 0 0 39.5 38.187 Q 40.563 38.5 41.688 38.5 A 16.384 16.384 0 0 0 43.229 38.43 A 14.46 14.46 0 0 0 43.719 38.375 Q 44.688 38.25 45.688 38.25 A 3.224 3.224 0 0 1 46.637 38.386 A 2.833 2.833 0 0 1 47.25 38.656 A 12.996 12.996 0 0 1 48.281 39.336 A 14.771 14.771 0 0 1 48.625 39.594 Q 49.313 40.125 50.031 40.563 A 3.498 3.498 0 0 0 51.625 41.063 A 38.668 38.668 0 0 1 52.501 41.513 Q 52.84 41.694 53.137 41.863 A 18.235 18.235 0 0 1 53.688 42.187 A 12.057 12.057 0 0 1 54.775 42.939 A 10.414 10.414 0 0 1 55.156 43.25 A 7.379 7.379 0 0 1 55.933 44.028 A 9.303 9.303 0 0 1 56.406 44.625 A 26.335 26.335 0 0 1 56.874 45.287 Q 57.077 45.585 57.297 45.919 A 50.48 50.48 0 0 1 57.75 46.625 Q 58.438 47.813 59.563 48.688 Q 60.688 49.563 61.375 50.813 A 2.359 2.359 0 0 1 61.61 51.404 A 3.092 3.092 0 0 1 61.688 51.844 A 9.357 9.357 0 0 0 61.817 52.699 A 8.187 8.187 0 0 0 61.875 52.969 Q 62 53.5 62.281 53.906 Q 62.563 54.313 63.188 54.375 A 31.283 31.283 0 0 1 63.281 55.719 Q 63.313 56.375 63.313 57.063 A 47.482 47.482 0 0 1 62.906 63.313 A 85.86 85.86 0 0 0 62.313 69.563 Q 61.875 69.125 61.344 68.844 A 2.379 2.379 0 0 0 60.566 68.585 A 2.217 2.217 0 0 0 60.25 68.563 A 2.182 2.182 0 0 0 59.159 68.86 A 2.764 2.764 0 0 0 58.938 69 A 1.639 1.639 0 0 0 58.575 69.339 A 1.252 1.252 0 0 0 58.313 70.125 Q 58.313 70.875 59.031 71.125 Q 59.75 71.375 60.5 71.375 Q 61.125 71.375 61.375 71.313 A 3.033 3.033 0 0 1 61.204 72.298 A 3.964 3.964 0 0 1 60.969 72.844 Q 60.563 73.625 59.969 74.375 Q 59.375 75.125 58.719 75.781 L 57.563 76.938 A 4.133 4.133 0 0 0 57.285 77.247 Q 57.158 77.403 57.024 77.592 A 9.638 9.638 0 0 0 56.75 78 A 14.557 14.557 0 0 1 55.781 79.344 Q 55.25 80 54.688 80.469 A 2.414 2.414 0 0 1 54.292 80.74 Q 54.031 80.882 53.769 80.922 A 1.364 1.364 0 0 1 53.563 80.938 A 1.844 1.844 0 0 1 53.137 80.891 A 1.265 1.265 0 0 1 52.563 80.594 A 1.254 1.254 0 0 0 51.688 80.25 Q 51.139 80.25 50.929 80.708 A 1.271 1.271 0 0 0 50.844 80.969 A 6.702 6.702 0 0 0 50.691 82.181 A 6.111 6.111 0 0 0 50.688 82.375 Z M 202.438 47.813 L 202.438 45.938 Q 202.438 44.625 202.313 43.25 Q 202.188 41.875 201.688 40.781 Q 201.188 39.688 200.25 39 A 3.192 3.192 0 0 0 199.286 38.53 Q 198.847 38.396 198.317 38.344 A 7.174 7.174 0 0 0 197.625 38.313 A 28.068 28.068 0 0 0 194.875 40.219 A 12.072 12.072 0 0 0 192.563 42.625 A 4.06 4.06 0 0 0 192.312 43.041 Q 192.062 43.509 191.794 44.222 A 19.462 19.462 0 0 0 191.625 44.688 A 27.268 27.268 0 0 0 191.17 46.131 Q 190.951 46.895 190.746 47.753 A 45.281 45.281 0 0 0 190.688 48 Q 190.25 49.875 189.844 52 A 153.339 153.339 0 0 0 189.461 54.078 A 132.487 132.487 0 0 0 189.125 56.063 A 91.985 91.985 0 0 0 188.844 57.922 A 70.022 70.022 0 0 0 188.625 59.625 A 47.174 47.174 0 0 0 188.543 60.387 Q 188.464 61.182 188.444 61.723 A 9.241 9.241 0 0 0 188.438 62.063 A 33.771 33.771 0 0 0 188.781 66.844 A 33.771 33.771 0 0 1 189.125 71.625 A 13.011 13.011 0 0 1 188.939 73.85 A 11.981 11.981 0 0 1 188.906 74.031 A 12.846 12.846 0 0 0 188.688 76.282 A 14.188 14.188 0 0 0 188.688 76.438 Q 188.688 76.938 188.75 77.438 A 2.26 2.26 0 0 0 188.933 78.078 A 2.921 2.921 0 0 0 189.125 78.438 Q 189.813 78.813 190.781 79.375 A 12.358 12.358 0 0 1 192.594 80.656 Q 193.438 81.375 194.031 82.188 A 3.267 3.267 0 0 1 194.448 82.937 A 2.585 2.585 0 0 1 194.625 83.875 A 4.065 4.065 0 0 1 194.374 85.329 A 3.639 3.639 0 0 1 193.313 86.813 Q 192 87.938 190.25 87.938 A 5.395 5.395 0 0 1 189.753 87.915 A 4.369 4.369 0 0 1 189.438 87.875 A 4.573 4.573 0 0 0 188.944 87.821 A 5.652 5.652 0 0 0 188.625 87.813 A 3.499 3.499 0 0 0 187.406 88.031 Q 186.813 88.25 186.188 88.531 Q 185.563 88.813 184.906 89.031 A 4.331 4.331 0 0 1 183.732 89.245 A 4.998 4.998 0 0 1 183.5 89.25 Q 181.563 89.25 179.75 88.75 Q 177.938 88.25 176 88.25 A 1.274 1.274 0 0 1 175.17 87.942 A 1.792 1.792 0 0 1 175 87.781 A 3.943 3.943 0 0 1 174.335 86.803 A 4.476 4.476 0 0 1 174.281 86.688 A 5.648 5.648 0 0 1 173.875 85.375 Q 173.751 84.691 173.75 84.255 A 3.18 3.18 0 0 1 173.75 84.25 A 4.326 4.326 0 0 1 173.796 83.601 Q 173.896 82.94 174.219 82.531 Q 174.688 81.938 175.375 81.5 A 26.393 26.393 0 0 1 176.102 81.055 A 34.015 34.015 0 0 1 176.906 80.594 A 5.337 5.337 0 0 0 178.129 79.652 A 6.326 6.326 0 0 0 178.438 79.312 A 5.011 5.011 0 0 0 178.979 78.521 Q 179.21 78.108 179.408 77.606 A 10.106 10.106 0 0 0 179.594 77.094 Q 179.922 76.11 180.02 74.682 A 19.039 19.039 0 0 0 180.063 73.375 Q 180.063 72.438 179.813 71.563 Q 179.563 70.688 179.281 69.813 Q 179 68.938 178.781 68.063 Q 178.563 67.188 178.563 66.25 Q 178.563 64.625 178.938 63 Q 179.313 61.375 179.313 59.75 Q 179.313 58.563 178.875 57.5 Q 178.438 56.438 178.438 55.313 A 2.332 2.332 0 0 1 178.906 53.875 A 2.332 2.332 0 0 0 179.375 52.438 Q 179.375 52.232 179.291 51.733 A 18.226 18.226 0 0 0 179.25 51.5 A 142.19 142.19 0 0 1 179.135 50.857 Q 179.057 50.416 178.969 49.906 A 40.206 40.206 0 0 1 178.752 48.494 A 46.077 46.077 0 0 1 178.688 48 A 16.527 16.527 0 0 1 178.583 46.857 A 13.363 13.363 0 0 1 178.563 46.125 A 9.246 9.246 0 0 1 178.844 43.875 A 9.246 9.246 0 0 0 179.125 41.625 A 2.514 2.514 0 0 0 178.781 40.344 A 3.935 3.935 0 0 0 177.962 39.355 A 4.48 4.48 0 0 0 177.875 39.281 Q 177.313 38.813 176.625 38.563 A 4.313 4.313 0 0 0 175.912 38.367 A 3.398 3.398 0 0 0 175.313 38.312 A 5.431 5.431 0 0 0 173.25 38.719 A 9.12 9.12 0 0 0 171.375 39.75 Q 170.5 40.375 169.688 41.125 Q 168.875 41.875 168.125 42.563 A 15.628 15.628 0 0 0 167.861 43.441 A 17.697 17.697 0 0 0 167.781 43.75 Q 167.625 44.375 167.313 44.875 A 1.525 1.525 0 0 1 166.992 45.219 Q 166.797 45.375 166.531 45.5 L 165.469 46 A 7.38 7.38 0 0 0 164.94 46.274 A 5.693 5.693 0 0 0 164.531 46.531 A 0.915 0.915 0 0 0 164.136 47.198 A 1.383 1.383 0 0 0 164.125 47.375 Q 164.125 47.875 164.469 48.188 A 2.309 2.309 0 0 0 164.82 48.453 A 1.801 1.801 0 0 0 165.188 48.625 Q 165.762 49.888 165.808 50.993 A 4.604 4.604 0 0 1 165.813 51.188 A 9.624 9.624 0 0 1 165.594 53.25 A 30.227 30.227 0 0 1 165.094 55.219 Q 164.813 56.188 164.594 57.219 A 9.77 9.77 0 0 0 164.375 59.25 L 164.438 65.5 A 5.554 5.554 0 0 0 164.448 65.854 Q 164.483 66.404 164.638 66.631 A 0.503 0.503 0 0 0 164.656 66.656 A 1.752 1.752 0 0 0 164.954 66.959 A 1.516 1.516 0 0 0 165.156 67.094 A 1.807 1.807 0 0 1 165.42 67.275 Q 165.569 67.396 165.719 67.563 A 1.024 1.024 0 0 1 165.862 67.777 Q 166.05 68.141 166.188 68.875 A 92.769 92.769 0 0 1 166.531 71.406 A 20.896 20.896 0 0 1 166.688 73.938 Q 166.688 75.25 166.438 76.531 Q 166.188 77.813 166.188 79.125 Q 166.188 80.5 166.594 81.156 A 2.611 2.611 0 0 0 167.054 81.718 A 2.163 2.163 0 0 0 167.625 82.094 Q 168.25 82.375 168.938 82.469 A 5.532 5.532 0 0 1 170.25 82.813 A 2.124 2.124 0 0 1 171.135 83.484 A 2.686 2.686 0 0 1 171.281 83.688 Q 171.688 84.313 171.688 85.688 A 3.705 3.705 0 0 1 171.584 86.588 A 2.66 2.66 0 0 1 171 87.719 A 3.366 3.366 0 0 1 169.851 88.557 A 4.523 4.523 0 0 1 169.125 88.813 Q 165.188 89.875 160.938 90.5 A 57.245 57.245 0 0 1 152.879 91.124 A 52.923 52.923 0 0 1 152.625 91.125 A 28.005 28.005 0 0 1 151.74 91.112 Q 151.307 91.098 150.931 91.07 A 13.399 13.399 0 0 1 150.5 91.031 Q 149.625 90.938 149.094 90.531 Q 148.638 90.183 148.389 89.489 A 3.803 3.803 0 0 1 148.313 89.25 A 5.129 5.129 0 0 1 148.181 88.63 Q 148.079 87.974 148.065 87.057 A 19.741 19.741 0 0 1 148.063 86.75 A 3.423 3.423 0 0 1 148.811 84.619 A 4.731 4.731 0 0 1 149.219 84.156 A 28.731 28.731 0 0 1 151.719 81.938 A 37.949 37.949 0 0 0 153.853 80.122 A 34 34 0 0 0 154.219 79.781 A 4.273 4.273 0 0 0 154.895 78.976 A 2.934 2.934 0 0 0 155.375 77.375 A 17.821 17.821 0 0 0 155.367 76.836 A 13.606 13.606 0 0 0 155.344 76.344 Q 155.314 75.89 155.313 75.524 A 9.125 9.125 0 0 1 155.313 75.5 A 4.187 4.187 0 0 1 155.469 74.375 Q 155.625 73.813 156.125 73.125 Q 156.125 71.75 155.844 70.375 A 104.096 104.096 0 0 0 155.25 67.656 A 124.129 124.129 0 0 1 154.656 64.969 A 13.542 13.542 0 0 1 154.375 62.188 Q 154.375 59.25 154.906 56.438 A 30.913 30.913 0 0 0 155.438 50.688 A 53.222 53.222 0 0 0 155.344 47.5 A 189.743 189.743 0 0 0 155.125 44.312 Q 154.94 42.458 154.693 41.307 A 13.43 13.43 0 0 0 154.688 41.281 A 6.86 6.86 0 0 0 154.391 40.273 A 5.062 5.062 0 0 0 153.906 39.313 A 4.275 4.275 0 0 0 153.046 38.361 A 5.531 5.531 0 0 0 152.406 37.906 Q 151.438 37.313 149.688 36.5 A 6.466 6.466 0 0 1 147.906 35.187 A 2.768 2.768 0 0 1 147.125 33.225 A 3.582 3.582 0 0 1 147.125 33.188 Q 147.125 31.875 147.719 31.344 Q 148.313 30.813 149.094 30.531 A 68.117 68.117 0 0 1 150.625 30 A 1.672 1.672 0 0 0 151.641 29.103 A 2.134 2.134 0 0 0 151.688 29 Q 151.919 28.479 152.124 28.36 A 0.301 0.301 0 0 1 152.156 28.344 Q 152.359 28.257 152.912 28.25 A 7.759 7.759 0 0 1 153 28.25 A 10.027 10.027 0 0 1 156.25 28.781 Q 157.813 29.313 159.25 29.906 A 202.985 202.985 0 0 0 161.354 30.762 A 181.599 181.599 0 0 0 162.031 31.031 A 7.848 7.848 0 0 0 163.433 31.446 A 6.3 6.3 0 0 0 164.625 31.563 A 4.669 4.669 0 0 0 166.02 31.338 Q 166.695 31.127 167.406 30.719 A 1429.129 1429.129 0 0 1 168.945 29.836 A 1854.25 1854.25 0 0 1 170.625 28.875 Q 172.375 27.875 174.531 27.031 A 12.053 12.053 0 0 1 177.301 26.327 A 15.781 15.781 0 0 1 179.438 26.187 A 4.972 4.972 0 0 1 180.859 26.403 A 6.328 6.328 0 0 1 181.625 26.687 A 12.805 12.805 0 0 1 183.779 27.914 A 14.109 14.109 0 0 1 183.813 27.937 Q 184.875 28.688 185.781 29.563 A 18.185 18.185 0 0 1 186.617 30.422 A 13.343 13.343 0 0 1 187.313 31.25 A 15.207 15.207 0 0 1 190.08 29.162 A 17.557 17.557 0 0 1 190.813 28.75 Q 192.813 27.688 195 27 Q 197.188 26.313 199.438 26 A 32.681 32.681 0 0 1 202.575 25.712 A 28.303 28.303 0 0 1 203.75 25.688 Q 205.313 25.688 206.563 26.531 A 7.99 7.99 0 0 1 208.181 27.996 A 9.813 9.813 0 0 1 208.781 28.781 A 16.102 16.102 0 0 1 210.069 31.032 A 18.889 18.889 0 0 1 210.469 31.938 Q 211.188 33.688 211.781 35.438 A 52.861 52.861 0 0 1 212.643 38.219 A 47.168 47.168 0 0 1 212.813 38.844 A 65.149 65.149 0 0 0 213.132 40.011 Q 213.261 40.467 213.385 40.87 A 31.585 31.585 0 0 0 213.625 41.625 A 3.572 3.572 0 0 1 213.809 42.23 A 3.311 3.311 0 0 1 213.813 42.25 A 3.156 3.156 0 0 1 213.863 42.621 A 4.034 4.034 0 0 1 213.875 42.937 Q 213.875 43.813 213.625 44.625 A 35.703 35.703 0 0 1 213.094 46.219 A 35.703 35.703 0 0 0 212.563 47.812 Q 212.313 48.625 212.313 49.5 A 4.289 4.289 0 0 0 212.656 51.188 A 4.289 4.289 0 0 1 213 52.875 A 4.337 4.337 0 0 1 212.625 54.656 Q 212.25 55.5 212.25 56.438 A 6.113 6.113 0 0 0 212.719 58.813 A 6.113 6.113 0 0 1 213.188 61.188 Q 213.188 62.125 212.906 62.969 A 34.708 34.708 0 0 1 212.303 64.633 A 37.674 37.674 0 0 1 212.281 64.687 A 34.889 34.889 0 0 0 211.674 66.353 A 32.226 32.226 0 0 0 211.656 66.406 A 5.594 5.594 0 0 0 211.375 68.18 A 6.092 6.092 0 0 0 211.375 68.187 A 2.805 2.805 0 0 0 211.413 68.657 A 2.499 2.499 0 0 0 211.438 68.781 A 3.513 3.513 0 0 0 211.534 69.126 A 4.439 4.439 0 0 0 211.625 69.375 L 214.063 75.5 A 6.309 6.309 0 0 0 214.902 76.898 Q 215.343 77.462 215.938 78 Q 217.25 79.188 218.625 80.313 Q 220 81.438 221.063 82.656 A 4.568 4.568 0 0 1 221.789 83.765 A 3.698 3.698 0 0 1 222.125 85.313 A 3.569 3.569 0 0 1 222.115 85.561 Q 222.095 85.843 222.035 86.248 A 18.653 18.653 0 0 1 221.969 86.656 Q 221.813 87.563 221.469 88.469 A 9.878 9.878 0 0 1 221.077 89.37 A 7.607 7.607 0 0 1 220.688 90.063 Q 220.433 90.462 220.137 90.629 A 0.901 0.901 0 0 1 219.688 90.75 A 3.548 3.548 0 0 1 218.49 90.537 A 4.126 4.126 0 0 1 218.313 90.469 A 3.73 3.73 0 0 0 217.324 90.21 A 3.381 3.381 0 0 0 216.938 90.188 A 22.915 22.915 0 0 0 212.625 90.594 A 22.915 22.915 0 0 1 208.313 91 A 7.144 7.144 0 0 1 206.789 90.842 A 6.386 6.386 0 0 1 206.313 90.719 A 47.708 47.708 0 0 1 204.469 90.125 Q 203.563 89.813 202.625 89.5 Q 201.688 89.188 200.688 89.063 A 3.667 3.667 0 0 1 199.664 88.837 A 2.773 2.773 0 0 1 198.406 87.875 A 4.021 4.021 0 0 1 197.637 85.729 A 5.046 5.046 0 0 1 197.625 85.375 A 5.214 5.214 0 0 1 197.799 84 A 4.104 4.104 0 0 1 198.531 82.531 A 51.037 51.037 0 0 1 199.492 81.344 A 63.806 63.806 0 0 1 200.563 80.094 A 12.917 12.917 0 0 0 201.759 78.484 A 16.797 16.797 0 0 0 202.594 77 A 7.43 7.43 0 0 0 203.146 75.465 Q 203.344 74.668 203.431 73.72 A 17.439 17.439 0 0 0 203.5 72.125 A 138.479 138.479 0 0 0 202.969 59.969 A 138.479 138.479 0 0 1 202.438 47.813 Z M 100.25 24.125 L 102.188 24.063 A 33.237 33.237 0 0 1 107.337 24.474 A 36.559 36.559 0 0 1 107.688 24.531 A 29.771 29.771 0 0 1 113.188 26 Q 115.875 27 118.281 28.469 Q 120.688 29.938 122.563 31.938 A 12.697 12.697 0 0 1 124.486 34.722 A 14.804 14.804 0 0 1 124.844 35.469 A 24.039 24.039 0 0 1 126.281 39.75 A 33.693 33.693 0 0 1 127.031 44.281 A 50.33 50.33 0 0 1 127.195 46.477 A 39.125 39.125 0 0 1 127.25 48.5 A 83.688 83.688 0 0 1 127.094 53.656 A 83.688 83.688 0 0 0 126.938 58.813 A 43.861 43.861 0 0 0 127.219 63.781 A 133.493 133.493 0 0 0 127.875 68.719 A 133.493 133.493 0 0 1 128.531 73.656 A 43.314 43.314 0 0 1 128.813 78.563 A 14.42 14.42 0 0 0 128.865 79.084 Q 128.99 80.127 129.219 80.406 A 1.284 1.284 0 0 0 129.384 80.576 Q 129.484 80.66 129.588 80.704 A 0.578 0.578 0 0 0 129.813 80.75 A 3.645 3.645 0 0 0 130.806 80.621 A 2.767 2.767 0 0 0 132.031 79.906 A 12.257 12.257 0 0 0 133.563 78.031 A 15.121 15.121 0 0 1 135.063 76.125 A 2.673 2.673 0 0 1 137.009 75.252 A 3.486 3.486 0 0 1 137.125 75.25 A 10.984 10.984 0 0 1 138.207 75.305 A 12.042 12.042 0 0 1 138.281 75.313 A 3.819 3.819 0 0 1 139.078 75.48 A 3.371 3.371 0 0 1 139.375 75.594 A 2.087 2.087 0 0 1 139.997 76.005 A 1.96 1.96 0 0 1 140.188 76.219 A 1.413 1.413 0 0 1 140.426 76.71 Q 140.5 76.978 140.5 77.313 Q 140.5 78.375 140.125 79.313 Q 139.75 80.25 139.438 81.25 A 21.42 21.42 0 0 0 139.297 81.766 Q 139.158 82.301 139.094 82.688 Q 139 83.25 138.813 83.656 A 1.985 1.985 0 0 1 138.503 84.128 A 2.621 2.621 0 0 1 138.219 84.406 Q 137.813 84.75 136.938 85.188 A 133.492 133.492 0 0 1 134.002 86.705 A 153.466 153.466 0 0 1 132.969 87.219 Q 130.875 88.25 128.75 88.25 A 7.173 7.173 0 0 1 125.344 87.406 A 20.968 20.968 0 0 1 122.661 85.723 A 19.201 19.201 0 0 1 122.406 85.531 A 177.771 177.771 0 0 1 121.125 84.539 A 133.746 133.746 0 0 1 119.969 83.625 A 6.692 6.692 0 0 0 119.443 83.242 Q 118.688 82.75 118.125 82.75 A 2.53 2.53 0 0 0 117.351 82.865 A 2.174 2.174 0 0 0 116.719 83.188 Q 116.125 83.625 115.531 84.125 A 10.304 10.304 0 0 1 114.484 84.896 A 11.671 11.671 0 0 1 114.219 85.062 A 2.878 2.878 0 0 1 113.33 85.41 Q 112.958 85.492 112.527 85.499 A 5.055 5.055 0 0 1 112.438 85.5 A 5.4 5.4 0 0 0 111.205 85.648 A 6.565 6.565 0 0 0 110.625 85.812 A 23.04 23.04 0 0 0 108.75 86.531 A 175.212 175.212 0 0 1 106.844 87.344 A 22.716 22.716 0 0 1 105.915 87.711 A 16.541 16.541 0 0 1 105.063 88 Q 102.25 88.75 99.406 88.875 Q 96.563 89 93.688 89 A 52.507 52.507 0 0 1 93.262 88.998 Q 92.564 88.992 91.431 88.97 A 313.133 313.133 0 0 1 91.375 88.969 Q 89.813 88.938 88.219 88.656 A 11.188 11.188 0 0 1 86.633 88.261 A 8.694 8.694 0 0 1 85.406 87.75 A 2.904 2.904 0 0 1 84.817 87.359 A 1.734 1.734 0 0 1 84.188 86 A 1.698 1.698 0 0 1 84.2 85.793 Q 84.215 85.668 84.25 85.563 Q 83.813 86.063 83.25 86.375 A 2.509 2.509 0 0 1 82.091 86.686 A 2.972 2.972 0 0 1 82 86.688 Q 81.15 86.688 79.985 85.695 A 9.89 9.89 0 0 1 79.563 85.312 A 22.056 22.056 0 0 1 77.65 83.222 A 26.392 26.392 0 0 1 76.813 82.125 Q 75.5 80.313 74.563 78.531 A 15.665 15.665 0 0 1 74.155 77.703 Q 73.803 76.926 73.685 76.375 A 2.409 2.409 0 0 1 73.625 75.875 Q 73.625 75.188 74.031 74.625 A 2.086 2.086 0 0 0 74.438 73.375 Q 74.438 72.5 74.219 71.719 A 6.015 6.015 0 0 1 74.004 70.307 A 6.846 6.846 0 0 1 74 70.063 A 6.611 6.611 0 0 1 74.139 68.747 A 8.79 8.79 0 0 1 74.438 67.656 Q 74.875 66.375 75.5 65.094 Q 76.125 63.813 76.813 62.594 A 109.488 109.488 0 0 0 77.469 61.414 A 87.212 87.212 0 0 0 78.063 60.313 Q 78.688 59.063 79.813 58.313 Q 80.938 57.563 82.188 57 L 84.688 55.875 Q 85.938 55.313 86.875 54.375 A 3.063 3.063 0 0 0 89.116 55.433 A 4.083 4.083 0 0 0 89.313 55.438 A 10.21 10.21 0 0 0 92.375 54.969 A 10.21 10.21 0 0 1 95.438 54.5 A 11.385 11.385 0 0 1 97.771 54.735 A 10.62 10.62 0 0 1 97.844 54.75 A 11.326 11.326 0 0 0 100.172 55 A 12.443 12.443 0 0 0 100.25 55 Q 101.448 55 102.101 54.739 A 1.952 1.952 0 0 0 102.281 54.656 Q 102.874 54.346 103.747 53.602 A 19.033 19.033 0 0 0 103.938 53.438 A 6.07 6.07 0 0 1 105.292 52.552 A 8.151 8.151 0 0 1 106.469 52.094 Q 108 51.625 109.656 51.344 A 184.096 184.096 0 0 0 112.969 50.75 A 14.526 14.526 0 0 0 114.712 50.313 A 11.471 11.471 0 0 0 115.938 49.844 A 5.92 5.92 0 0 0 117.352 48.958 A 5.205 5.205 0 0 0 118.063 48.219 A 3.498 3.498 0 0 0 118.659 47.036 Q 118.808 46.537 118.854 45.939 A 7.289 7.289 0 0 0 118.875 45.375 Q 118.875 43.375 117.719 41.156 Q 116.563 38.938 114.75 37.094 A 16.895 16.895 0 0 0 110.75 34.062 A 10.851 10.851 0 0 0 108.938 33.272 Q 107.795 32.9 106.707 32.877 A 6.772 6.772 0 0 0 106.563 32.875 Q 106.313 32.875 106.063 32.938 Q 105.866 32.987 105.709 32.997 A 1.252 1.252 0 0 1 105.625 33 A 25.313 25.313 0 0 1 104.031 33.211 A 34.717 34.717 0 0 1 102.251 33.344 A 16.159 16.159 0 0 0 99.803 33.647 A 13.869 13.869 0 0 0 98.75 33.906 A 6.702 6.702 0 0 0 96.833 34.791 A 6.107 6.107 0 0 0 96 35.469 A 3.482 3.482 0 0 0 95.106 36.973 Q 94.935 37.531 94.89 38.205 A 7.376 7.376 0 0 0 94.875 38.687 A 13.947 13.947 0 0 0 95.094 41.156 A 13.947 13.947 0 0 1 95.313 43.625 Q 95.313 45.5 94.406 46.75 Q 93.5 48 92.094 48.75 Q 90.688 49.5 89 49.781 A 20.457 20.457 0 0 1 86.539 50.045 A 17.902 17.902 0 0 1 85.75 50.063 A 11.831 11.831 0 0 1 84.218 49.968 Q 83.426 49.865 82.747 49.647 A 6.869 6.869 0 0 1 82.5 49.562 A 3.341 3.341 0 0 1 81.215 48.698 Q 80.674 48.128 80.25 47.25 A 267.553 267.553 0 0 1 79.539 45.883 A 334.277 334.277 0 0 1 78.781 44.406 A 7.176 7.176 0 0 1 78.119 42.528 A 6.281 6.281 0 0 1 78 41.313 A 8.484 8.484 0 0 1 78.392 38.715 A 7.928 7.928 0 0 1 78.594 38.156 A 29.992 29.992 0 0 1 79.938 35.281 A 181.722 181.722 0 0 0 81.406 32.469 Q 82.125 31.063 82.438 29.438 A 3.891 3.891 0 0 1 82.745 29.281 Q 83.094 29.121 83.586 28.96 A 12.498 12.498 0 0 1 83.656 28.937 Q 84.438 28.688 85.344 28.438 A 120.427 120.427 0 0 1 86.668 28.08 A 107.421 107.421 0 0 1 87.094 27.969 A 33.304 33.304 0 0 0 87.498 27.861 Q 88.078 27.703 88.5 27.563 A 26.644 26.644 0 0 0 91.406 26.531 A 43.082 43.082 0 0 1 94.281 25.438 Q 95.75 24.938 97.219 24.563 Q 98.688 24.188 100.25 24.125 Z M 249.563 90.063 L 249.938 90.688 Q 249.563 91.25 248.25 91.781 A 19.682 19.682 0 0 1 246.342 92.438 A 23.156 23.156 0 0 1 245.406 92.688 A 45.658 45.658 0 0 1 242.98 93.214 A 40.643 40.643 0 0 1 242.438 93.312 Q 241.263 93.517 240.548 93.554 A 5.73 5.73 0 0 1 240.25 93.562 A 10.038 10.038 0 0 1 238.905 93.478 Q 237.79 93.327 236.969 92.906 A 5.732 5.732 0 0 1 235.933 92.213 Q 235.18 91.59 234.438 90.625 A 7.486 7.486 0 0 0 233.876 89.922 A 9.707 9.707 0 0 0 233.344 89.375 A 24.077 24.077 0 0 1 232.094 88.094 A 7.213 7.213 0 0 1 231.094 86.687 A 3.238 3.238 0 0 1 230.688 85.125 A 1.615 1.615 0 0 1 231.182 83.961 Q 231.391 83.748 231.688 83.563 A 8.365 8.365 0 0 1 232.856 82.96 A 11.253 11.253 0 0 1 234.063 82.531 Q 235.438 82.125 236.813 81.969 A 37.813 37.813 0 0 1 237.461 81.9 Q 238.161 81.833 238.655 81.817 A 8.895 8.895 0 0 1 238.938 81.812 Q 240.438 81.813 241.938 82.219 Q 243.438 82.625 244.938 82.625 Q 246.313 82.625 247.563 82.25 Q 248.813 81.875 250.188 81.875 Q 251.375 81.875 252.531 82.031 Q 253.688 82.188 254.875 82.188 Q 256.375 82.188 257.781 81.656 A 12.03 12.03 0 0 0 260.438 80.25 A 68.111 68.111 0 0 0 261.156 74.125 A 86.822 86.822 0 0 0 261.375 67.938 Q 261.375 64.875 260.875 61.813 Q 260.375 58.75 260.375 55.75 A 0.759 0.759 0 0 1 260.38 55.657 Q 260.392 55.562 260.431 55.514 A 0.126 0.126 0 0 1 260.5 55.469 A 5.198 5.198 0 0 1 260.633 55.438 A 7.144 7.144 0 0 1 260.781 55.406 A 0.687 0.687 0 0 0 261.063 55.281 A 0.222 0.222 0 0 0 261.127 55.199 Q 261.188 55.074 261.188 54.813 Q 261.188 53.5 260.813 52.25 Q 260.438 51 260.438 49.688 Q 260.438 48.063 260.875 46.5 Q 261.313 44.938 261.313 43.313 A 5.351 5.351 0 0 0 260.983 41.484 A 6.345 6.345 0 0 0 260.813 41.063 Q 260.313 39.938 259.5 39.063 A 6.516 6.516 0 0 0 257.625 37.656 Q 256.563 37.125 255.375 37.125 Q 254.063 37.125 252.781 37.438 A 55.573 55.573 0 0 0 250.807 37.959 A 62.953 62.953 0 0 0 250.125 38.156 Q 248.75 38.563 247.344 38.875 A 13.34 13.34 0 0 1 244.956 39.177 A 15.199 15.199 0 0 1 244.375 39.188 Q 242.563 39.188 240.813 38.938 Q 239.063 38.688 237.25 38.375 A 60.163 60.163 0 0 0 236.336 38.252 Q 235.852 38.19 235.316 38.129 A 96.932 96.932 0 0 0 235.281 38.125 Q 234.188 38 233.188 37.688 Q 232.188 37.375 231.5 36.75 A 2.012 2.012 0 0 1 230.909 35.749 Q 230.813 35.383 230.813 34.938 Q 230.813 33.558 231.123 32.589 A 3.884 3.884 0 0 1 231.594 31.594 A 5.195 5.195 0 0 1 232.701 30.393 A 4.664 4.664 0 0 1 233.531 29.875 A 6.973 6.973 0 0 1 235.339 29.292 A 8.452 8.452 0 0 1 236.125 29.188 Q 237.563 29.063 238.875 28.938 A 387.322 387.322 0 0 1 243.594 28.594 A 70.92 70.92 0 0 1 248.313 28.438 A 48.135 48.135 0 0 1 254.094 28.781 A 48.135 48.135 0 0 0 259.875 29.125 Q 261.938 29.125 263.813 29.75 Q 265.688 30.375 267.094 31.656 A 8.687 8.687 0 0 1 268.958 34.115 A 10.455 10.455 0 0 1 269.313 34.875 A 10.155 10.155 0 0 1 269.97 37.252 A 13.834 13.834 0 0 1 270.125 39.375 A 7.902 7.902 0 0 1 269.406 42.656 A 10.945 10.945 0 0 1 267.563 45.5 A 5.426 5.426 0 0 0 267.809 45.915 Q 268.076 46.32 268.344 46.527 A 1.326 1.326 0 0 0 268.438 46.594 Q 268.875 46.875 269.25 47.094 Q 269.625 47.313 269.875 47.656 A 0.944 0.944 0 0 1 269.999 47.905 Q 270.125 48.271 270.125 48.938 A 3.918 3.918 0 0 0 270.154 49.4 Q 270.183 49.637 270.238 49.9 A 7.376 7.376 0 0 0 270.281 50.094 Q 270.414 50.65 270.928 50.78 A 1.28 1.28 0 0 0 271.125 50.812 Q 271.125 54.188 271.063 57.469 Q 271 60.75 271 64.063 A 506.274 506.274 0 0 0 271.031 69.688 A 39.399 39.399 0 0 0 271.5 75.313 A 8.339 8.339 0 0 0 271.718 76.373 Q 271.996 77.37 272.5 78 Q 273.247 78.934 275.171 78.937 A 8.014 8.014 0 0 0 275.188 78.938 A 26.283 26.283 0 0 0 280.75 78.344 A 26.283 26.283 0 0 1 286.313 77.75 Q 287.938 77.75 289.406 78.563 Q 290.875 79.375 292.219 80.313 A 99.032 99.032 0 0 0 294.182 81.648 A 85.858 85.858 0 0 0 294.813 82.063 Q 295.828 82.722 296.76 82.846 A 3.239 3.239 0 0 0 297.188 82.875 Q 297.688 82.875 298 83.219 A 2.233 2.233 0 0 1 298.449 83.973 A 2.567 2.567 0 0 1 298.469 84.031 Q 298.625 84.5 298.656 85 A 18.538 18.538 0 0 1 298.675 85.357 Q 298.684 85.552 298.686 85.724 A 9.907 9.907 0 0 1 298.688 85.875 A 4.976 4.976 0 0 1 298.281 87.875 Q 297.875 88.813 297.156 89.531 A 5.778 5.778 0 0 1 295.5 90.687 A 4.712 4.712 0 0 1 293.785 91.114 A 5.572 5.572 0 0 1 293.438 91.125 Q 293.025 91.125 292.89 91.014 A 0.216 0.216 0 0 1 292.875 91 L 292.438 90.563 A 3.405 3.405 0 0 0 290.313 89.469 A 296.201 296.201 0 0 0 288.385 89.234 A 329.373 329.373 0 0 0 287.719 89.156 Q 286.375 89 285.156 88.469 Q 284.08 88 283.37 86.678 A 6.704 6.704 0 0 1 283.188 86.313 A 5.844 5.844 0 0 0 282.918 85.801 Q 282.538 85.167 282.125 84.938 A 1.952 1.952 0 0 0 281.701 84.769 Q 281.265 84.648 280.627 84.629 A 8.272 8.272 0 0 0 280.375 84.625 Q 277.625 84.625 275.125 85.5 Q 272.625 86.375 270.188 87.469 A 60.064 60.064 0 0 1 265.219 89.437 Q 262.688 90.313 260 90.313 A 15.75 15.75 0 0 1 257.031 90.031 A 12.556 12.556 0 0 1 254.188 89.125 A 1.72 1.72 0 0 1 253.469 89.562 A 2.785 2.785 0 0 1 252.953 89.667 A 3.577 3.577 0 0 1 252.563 89.687 Q 252.125 89.688 251.719 89.625 A 6.018 6.018 0 0 0 251.382 89.582 Q 251.176 89.563 251 89.563 A 0.21 0.21 0 0 0 250.959 89.57 Q 250.829 89.601 250.343 89.77 A 41.163 41.163 0 0 0 250.313 89.781 A 39.272 39.272 0 0 0 250.096 89.858 Q 249.698 90 249.581 90.054 A 0.651 0.651 0 0 0 249.563 90.063 Z M 119.938 61.75 A 14.951 14.951 0 0 0 119.936 61.528 Q 119.93 61.182 119.911 60.582 A 131.106 131.106 0 0 0 119.906 60.438 A 20.135 20.135 0 0 0 119.75 58.531 A 8.963 8.963 0 0 0 119.586 57.617 A 6.644 6.644 0 0 0 119.344 56.813 A 1.866 1.866 0 0 0 119.197 56.502 Q 119.098 56.339 118.977 56.236 A 0.716 0.716 0 0 0 118.5 56.062 A 0.436 0.436 0 0 0 118.407 56.074 Q 118.317 56.093 118.204 56.148 A 1.526 1.526 0 0 0 118.188 56.156 Q 118.011 56.245 117.889 56.25 A 0.348 0.348 0 0 1 117.875 56.25 A 158.6 158.6 0 0 1 116.191 57.168 Q 115.529 57.524 114.934 57.833 A 77.562 77.562 0 0 1 113.813 58.406 A 24.246 24.246 0 0 1 111.195 59.534 A 21.52 21.52 0 0 1 110.469 59.781 A 16.718 16.718 0 0 1 107.633 60.418 A 19.001 19.001 0 0 1 106.938 60.5 A 32.758 32.758 0 0 1 105.434 60.612 Q 104.03 60.688 102.25 60.688 A 2.087 2.087 0 0 0 102.063 60.698 Q 101.599 60.742 100.399 60.961 A 79.88 79.88 0 0 0 100.188 61 A 191.68 191.68 0 0 0 98.422 61.336 A 248.469 248.469 0 0 0 96.5 61.719 Q 94.5 62.125 92.75 62.531 A 227.036 227.036 0 0 0 92.14 62.674 Q 90.918 62.961 90.563 63.063 Q 89.876 63.327 89.524 63.591 A 1.625 1.625 0 0 0 89.406 63.688 Q 89.063 64 88.875 64.375 A 27.425 27.425 0 0 0 88.547 65.055 A 30.205 30.205 0 0 0 88.5 65.156 A 1.845 1.845 0 0 1 88.306 65.478 Q 88.2 65.622 88.057 65.769 A 4.143 4.143 0 0 1 87.813 66 A 5.926 5.926 0 0 1 86.469 66.812 A 4.145 4.145 0 0 0 85.484 67.423 A 5.066 5.066 0 0 0 85.125 67.75 A 8.287 8.287 0 0 0 84.281 68.75 Q 83.928 69.237 83.595 69.82 A 14.647 14.647 0 0 0 83.375 70.219 A 7.808 7.808 0 0 0 82.849 71.437 Q 82.563 72.309 82.563 73.125 A 5.536 5.536 0 0 0 82.896 75.065 A 5.106 5.106 0 0 0 83.438 76.125 Q 84.313 77.438 85.75 78.375 A 15.938 15.938 0 0 0 87.877 79.534 A 19.221 19.221 0 0 0 89 80 Q 90.813 80.688 92.656 81.063 A 40.517 40.517 0 0 0 95.352 81.52 A 35.695 35.695 0 0 0 96.219 81.625 A 37.473 37.473 0 0 0 97.442 81.739 Q 98.045 81.785 98.576 81.802 A 18.963 18.963 0 0 0 99.188 81.813 A 25.224 25.224 0 0 0 100.392 81.782 Q 101.461 81.73 102.75 81.594 Q 104.813 81.375 106.875 80.906 A 20.857 20.857 0 0 0 110.293 79.823 A 19.133 19.133 0 0 0 110.75 79.625 A 9.442 9.442 0 0 0 112.262 78.783 A 7.001 7.001 0 0 0 113.625 77.563 A 5.792 5.792 0 0 0 113.896 77.23 Q 114.025 77.058 114.121 76.899 A 2.563 2.563 0 0 0 114.25 76.656 A 14.764 14.764 0 0 1 114.656 75.844 A 11.875 11.875 0 0 1 114.954 75.324 A 14.204 14.204 0 0 1 115.156 75 A 2.727 2.727 0 0 1 115.409 74.67 Q 115.55 74.511 115.732 74.344 A 6.521 6.521 0 0 1 116.063 74.063 A 9.849 9.849 0 0 0 117.472 72.647 A 8.102 8.102 0 0 0 118.281 71.437 A 12.242 12.242 0 0 0 119.438 68.438 Q 119.813 66.875 119.875 65.188 Q 119.938 63.5 119.938 61.75 Z M 254.188 2.75 L 253.875 2.875 A 12.779 12.779 0 0 1 255.719 2.25 Q 256.688 2 257.688 2 A 6.614 6.614 0 0 1 258.747 2.092 Q 259.692 2.246 260.844 2.656 A 17.837 17.837 0 0 1 264.375 4.375 A 12.152 12.152 0 0 1 266.827 6.392 A 11.199 11.199 0 0 1 267.25 6.875 A 5.937 5.937 0 0 1 267.974 7.962 Q 268.438 8.875 268.438 9.813 A 12.062 12.062 0 0 1 268.079 12.687 A 14.165 14.165 0 0 1 267.844 13.531 A 12.445 12.445 0 0 1 266.125 17.031 A 9.87 9.87 0 0 1 263.406 19.656 A 6.365 6.365 0 0 1 259.875 20.687 A 10.937 10.937 0 0 1 258.827 20.633 Q 257.851 20.538 256.625 20.281 A 18.875 18.875 0 0 1 252.906 19.094 Q 251.125 18.313 249.844 17.063 A 4.347 4.347 0 0 1 248.924 15.794 A 3.891 3.891 0 0 1 248.563 14.125 A 14.312 14.312 0 0 1 248.79 11.626 A 16.349 16.349 0 0 1 248.906 11.031 A 18.635 18.635 0 0 0 249.313 7.813 Q 249.786 7.576 250.26 7.051 A 5.982 5.982 0 0 0 250.563 6.688 A 48.396 48.396 0 0 0 251.781 5.031 A 21.053 21.053 0 0 1 252.524 4.038 A 17.383 17.383 0 0 1 252.969 3.5 A 3.043 3.043 0 0 1 253.334 3.139 Q 253.753 2.793 254.188 2.75 Z" vector-effect="non-scaling-stroke"/></g></svg>